# 3ds Max Wavefront OBJ Exporter v0.99 - (c)2007 guruware
# File Created: 16.08.2023 19:04:37

#
# object Box004
#

v  0.3853 0.2341 -0.7759
v  0.3314 0.0893 -0.9699
v  0.1728 -0.0529 -1.0233
v  0.2062 0.1406 -0.7546
v  -0.8701 -0.3863 -0.8844
v  -0.7497 -0.2711 -0.6101
v  -0.7031 -0.3695 -0.9791
v  -0.8041 -0.4759 -1.0131
v  -0.7722 -0.7591 -1.0891
v  -0.8875 -0.7585 -1.0339
v  -0.9298 -0.6753 -1.0196
v  -0.8570 -0.6336 -1.0804
v  -0.7219 -0.7088 -1.1446
v  -0.1871 -0.2603 -1.0534
v  -0.1833 -0.0457 -0.7242
v  -0.1811 -0.6815 -1.2890
v  0.2230 -0.7104 -1.3874
v  0.3911 -0.7110 -1.3633
v  0.4935 0.2472 -0.7339
v  0.5464 0.0999 -0.9503
v  0.6981 -0.6522 -1.2845
v  1.2160 -0.6987 -0.7477
v  1.1846 -0.7591 -0.7320
v  0.8011 -0.7617 -1.1923
v  0.8365 -0.6841 -1.1933
v  0.6461 -0.7539 -1.2795
v  0.3904 -0.7542 -1.3640
v  0.2197 -0.7612 -1.3581
v  -0.1901 -0.7596 -1.2608
v  1.3619 -0.6061 -0.5451
v  1.3752 -0.7617 -0.4755
v  0.5812 0.2580 -0.6846
v  0.6381 0.1842 -0.7739
v  0.9638 0.2734 -0.5126
v  0.9284 0.3182 -0.4692
v  1.0724 0.3572 -0.2426
v  1.1430 0.2203 -0.3536
v  1.4060 -0.5005 -0.3764
v  1.4683 -0.6970 -0.2264
v  1.4330 -0.7564 -0.2261
v  0.9331 0.3462 0.3438
v  1.4209 -0.7232 0.3559
v  1.4309 -0.7613 0.3592
v  1.0125 0.1113 0.4830
v  0.8159 0.3880 0.5073
v  1.4279 -0.7569 0.4674
v  0.7333 0.4434 0.5948
v  0.4974 0.5698 0.6606
v  0.5592 0.3637 0.7800
v  0.6807 0.3406 0.7308
v  0.7357 -0.5486 1.2245
v  0.8258 -0.5568 1.1910
v  0.6716 -0.6518 1.2991
v  0.9205 -0.6647 1.1675
v  0.7950 -0.7531 1.2319
v  0.8587 -0.7488 1.1935
v  1.3259 -0.7543 0.6507
v  1.2492 -0.6930 0.7722
v  0.4688 0.5247 0.7227
v  0.2240 0.7387 0.6749
v  0.2136 0.6961 0.7370
v  0.3461 -0.6363 1.3487
v  -0.0670 0.7498 0.6964
v  -0.0832 0.6740 0.8006
v  0.0766 0.7689 0.6402
v  0.0330 -0.6391 1.3875
v  0.3502 -0.7617 1.3190
v  0.0238 -0.7500 1.3663
v  -0.9141 0.4743 0.7585
v  -0.9396 0.4210 0.8592
v  -0.9234 -0.6988 1.2843
v  -1.0194 0.3844 0.7949
v  -0.9877 0.4247 0.7375
v  -1.2264 0.1408 0.4678
v  -1.1855 0.1739 0.3825
v  -1.2433 -0.0572 0.1041
v  -1.3460 -0.1622 0.2818
v  -1.4539 -0.5415 0.4186
v  -1.4372 -0.5185 0.5559
v  -1.0503 -0.6980 1.1746
v  -1.2081 -0.7188 0.9790
v  -1.0085 -0.7605 1.1388
v  -0.9029 -0.7523 1.2673
v  -1.1937 -0.7578 0.9697
v  -1.4132 -0.6696 0.6983
v  -1.4025 -0.7577 0.6800
v  -1.4664 -0.6385 0.3703
v  -1.4218 -0.7644 0.4939
v  -1.4683 -0.6817 0.2656
v  -1.4381 -0.7609 0.3507
v  -1.2968 -0.7689 -0.3464
v  -1.3496 -0.6599 -0.3520
v  -1.1567 -0.6675 -0.6998
v  -1.1251 -0.7637 -0.6729
v  -1.1915 -0.4658 -0.4662
v  -1.0308 -0.4261 -0.6753
v  0.2036 0.5023 0.1363
v  0.3142 0.3544 -0.3824
v  -0.2354 0.0756 -0.3881
v  -0.3271 0.2711 0.1291
v  -0.8253 -0.0861 -0.2010
v  -0.9148 0.1470 0.2461
v  0.0420 -0.7581 0.0855
# 103 vertices

vn -0.2175 0.6839 -0.6964
vn -0.2912 0.6255 -0.7238
vn -0.4381 0.7947 -0.4202
vn -0.1558 0.8686 -0.4704
vn -0.5387 0.7134 -0.4481
vn -0.4198 0.8429 -0.3367
vn -0.2772 0.7367 -0.6167
vn -0.5387 0.7134 -0.4481
vn -0.2772 0.7367 -0.6167
vn -0.3861 0.5014 -0.7743
vn -0.4182 -0.7083 -0.5687
vn -0.7558 0.0422 -0.6535
vn -0.5283 0.1944 -0.8265
vn -0.2751 -0.8136 -0.5122
vn -0.3036 -0.1458 -0.9416
vn -0.2751 -0.8136 -0.5122
vn -0.5283 0.1944 -0.8265
vn -0.2772 0.7367 -0.6167
vn -0.4198 0.8429 -0.3367
vn -0.4120 0.8010 -0.4343
vn -0.2651 0.6353 -0.7253
vn -0.2912 0.6255 -0.7238
vn -0.2651 0.6353 -0.7253
vn -0.4120 0.8010 -0.4343
vn -0.4381 0.7947 -0.4202
vn -0.3861 0.5014 -0.7743
vn -0.5283 0.1944 -0.8265
vn -0.7558 0.0422 -0.6535
vn -0.5387 0.7134 -0.4481
vn -0.3861 0.5014 -0.7743
vn -0.2772 0.7367 -0.6167
vn -0.3036 -0.1458 -0.9416
vn -0.5283 0.1944 -0.8265
vn -0.2772 0.7367 -0.6167
vn -0.2651 0.6353 -0.7253
vn -0.2433 0.1071 -0.9640
vn -0.3036 -0.1458 -0.9416
vn -0.2651 0.6353 -0.7253
vn -0.2912 0.6255 -0.7238
vn -0.0397 -0.0169 -0.9991
vn -0.2433 0.1071 -0.9640
vn -0.2912 0.6255 -0.7238
vn -0.2175 0.6839 -0.6964
vn 0.1729 0.2201 -0.9600
vn -0.0397 -0.0169 -0.9991
vn 0.3401 0.6088 -0.7168
vn -0.2175 0.6839 -0.6964
vn -0.1558 0.8686 -0.4704
vn 0.0270 0.9546 -0.2966
vn 0.4127 0.1337 -0.9010
vn 0.1729 0.2201 -0.9600
vn -0.2175 0.6839 -0.6964
vn 0.3401 0.6088 -0.7168
vn 0.3987 -0.8605 -0.3171
vn 0.3760 -0.7709 -0.5142
vn 0.6755 0.0628 -0.7347
vn 0.8021 -0.1412 -0.5802
vn 0.2324 -0.7616 -0.6049
vn 0.1164 -0.6599 -0.7423
vn 0.1729 0.2201 -0.9600
vn 0.4127 0.1337 -0.9010
vn -0.0397 -0.0169 -0.9991
vn 0.1729 0.2201 -0.9600
vn 0.1164 -0.6599 -0.7423
vn -0.0574 -0.8536 -0.5178
vn -0.0574 -0.8536 -0.5178
vn -0.1570 -0.8023 -0.5760
vn -0.2433 0.1071 -0.9640
vn -0.0397 -0.0169 -0.9991
vn -0.1570 -0.8023 -0.5760
vn -0.2751 -0.8136 -0.5122
vn -0.3036 -0.1458 -0.9416
vn -0.2433 0.1071 -0.9640
vn 0.3760 -0.7709 -0.5142
vn 0.2324 -0.7616 -0.6049
vn 0.4127 0.1337 -0.9010
vn 0.6755 0.0628 -0.7347
vn 0.8646 0.1076 -0.4907
vn 0.6277 -0.7212 -0.2932
vn 0.3987 -0.8605 -0.3171
vn 0.8021 -0.1412 -0.5802
vn 0.3833 0.6845 -0.6201
vn 0.3401 0.6088 -0.7168
vn 0.0270 0.9546 -0.2966
vn 0.1160 0.8988 -0.4228
vn 0.6755 0.0628 -0.7347
vn 0.4127 0.1337 -0.9010
vn 0.3401 0.6088 -0.7168
vn 0.3833 0.6845 -0.6201
vn 0.8021 -0.1412 -0.5802
vn 0.6755 0.0628 -0.7347
vn 0.3833 0.6845 -0.6201
vn 0.5161 0.6004 -0.6109
vn 0.5161 0.6004 -0.6109
vn 0.3833 0.6845 -0.6201
vn 0.1160 0.8988 -0.4228
vn 0.2226 0.8923 -0.3927
vn 0.2226 0.8923 -0.3927
vn 0.5746 0.8171 -0.0464
vn 0.8456 0.4586 -0.2734
vn 0.5161 0.6004 -0.6109
vn 0.9413 0.2701 -0.2026
vn 0.8646 0.1076 -0.4907
vn 0.8456 0.4586 -0.2734
vn 0.9413 0.2701 -0.2026
vn 0.9927 -0.1008 -0.0657
vn 0.6277 -0.7212 -0.2932
vn 0.8646 0.1076 -0.4907
vn 0.9927 -0.1008 -0.0657
vn 0.5225 -0.8509 -0.0553
vn 0.6277 -0.7212 -0.2932
vn 0.8646 0.1076 -0.4907
vn 0.8021 -0.1412 -0.5802
vn 0.5161 0.6004 -0.6109
vn 0.8456 0.4586 -0.2734
vn 0.9413 0.2701 -0.2026
vn 0.8456 0.4586 -0.2734
vn 0.5746 0.8171 -0.0464
vn 0.9927 -0.1008 -0.0657
vn 0.9360 0.3449 0.0702
vn 0.9927 -0.1008 -0.0657
vn 0.5746 0.8171 -0.0464
vn 0.6261 0.7569 0.1872
vn 0.5225 -0.8509 -0.0553
vn 0.9927 -0.1008 -0.0657
vn 0.9360 0.3449 0.0702
vn 0.7865 -0.6171 0.0251
vn 0.8092 0.4356 0.3941
vn 0.6261 0.7569 0.1872
vn 0.5938 0.7896 0.1545
vn 0.9360 0.3449 0.0702
vn 0.6261 0.7569 0.1872
vn 0.8092 0.4356 0.3941
vn 0.8348 -0.4908 0.2494
vn 0.7865 -0.6171 0.0251
vn 0.9360 0.3449 0.0702
vn 0.8348 -0.4908 0.2494
vn 0.6225 0.7454 0.2385
vn 0.5215 0.8244 0.2201
vn 0.3645 0.4923 0.7904
vn 0.5346 0.5153 0.6698
vn 0.3089 0.4408 0.8428
vn 0.5016 0.3329 0.7985
vn 0.5346 0.5153 0.6698
vn 0.3645 0.4923 0.7904
vn 0.5016 0.3329 0.7985
vn 0.3089 0.4408 0.8428
vn 0.2483 0.0216 0.9684
vn 0.6878 0.0864 0.7208
vn 0.6878 0.0864 0.7208
vn 0.2483 0.0216 0.9684
vn 0.3521 -0.6881 0.6345
vn 0.4196 -0.7310 0.5381
vn 0.4196 -0.7310 0.5381
vn 0.6462 -0.6563 0.3896
vn 0.8164 0.0787 0.5721
vn 0.6878 0.0864 0.7208
vn 0.8164 0.0787 0.5721
vn 0.6462 -0.6563 0.3896
vn 0.8348 -0.4908 0.2494
vn 0.8092 0.4356 0.3941
vn 0.5215 0.8244 0.2201
vn 0.4437 0.5295 0.7230
vn 0.3645 0.4923 0.7904
vn 0.5346 0.5153 0.6698
vn 0.8092 0.4356 0.3941
vn 0.5938 0.7896 0.1545
vn 0.6225 0.7454 0.2385
vn 0.8092 0.4356 0.3941
vn 0.5346 0.5153 0.6698
vn 0.5016 0.3329 0.7985
vn 0.8164 0.0787 0.5721
vn 0.6878 0.0864 0.7208
vn 0.8164 0.0787 0.5721
vn 0.5016 0.3329 0.7985
vn 0.2593 0.6461 0.7179
vn 0.4437 0.5295 0.7230
vn 0.5215 0.8244 0.2201
vn 0.3521 0.9259 0.1369
vn 0.2483 0.0216 0.9684
vn 0.3089 0.4408 0.8428
vn 0.3645 0.4923 0.7904
vn 0.4437 0.5295 0.7230
vn 0.4437 0.5295 0.7230
vn 0.2593 0.6461 0.7179
vn 0.1383 0.1111 0.9841
vn 0.2483 0.0216 0.9684
vn -0.1947 0.9779 0.0762
vn -0.0192 0.6406 0.7676
vn 0.2593 0.6461 0.7179
vn 0.3521 0.9259 0.1369
vn 0.3521 0.9259 0.1369
vn -0.0110 0.9962 -0.0867
vn -0.1947 0.9779 0.0762
vn 0.1383 0.1111 0.9841
vn 0.2593 0.6461 0.7179
vn -0.0192 0.6406 0.7676
vn 0.0094 0.1171 0.9931
vn 0.1001 -0.7820 0.6152
vn 0.3521 -0.6881 0.6345
vn 0.2483 0.0216 0.9684
vn 0.1383 0.1111 0.9841
vn 0.1383 0.1111 0.9841
vn 0.0094 0.1171 0.9931
vn -0.0028 -0.7412 0.6712
vn 0.1001 -0.7820 0.6152
vn -0.4070 0.9123 -0.0448
vn -0.4077 0.5987 0.6894
vn -0.0192 0.6406 0.7676
vn -0.1947 0.9779 0.0762
vn 0.0094 0.1171 0.9931
vn -0.0192 0.6406 0.7676
vn -0.4077 0.5987 0.6894
vn -0.4023 -0.0500 0.9141
vn -0.4077 0.5987 0.6894
vn -0.4070 0.9123 -0.0448
vn -0.6166 0.7851 -0.0592
vn -0.7723 0.5071 0.3827
vn -0.8771 0.4712 0.0932
vn -0.7723 0.5071 0.3827
vn -0.6166 0.7851 -0.0592
vn -0.5591 0.7394 -0.3751
vn -0.9325 0.3461 -0.1033
vn -0.8771 0.4712 0.0932
vn -0.5591 0.7394 -0.3751
vn -0.6753 0.5955 -0.4352
vn -0.9454 0.2017 0.2560
vn -0.8771 0.4712 0.0932
vn -0.9325 0.3461 -0.1033
vn -0.9816 0.1905 0.0155
vn -0.6925 -0.2105 0.6900
vn -0.4023 -0.0500 0.9141
vn -0.4077 0.5987 0.6894
vn -0.7723 0.5071 0.3827
vn -0.6925 -0.2105 0.6900
vn -0.7723 0.5071 0.3827
vn -0.8771 0.4712 0.0932
vn -0.7947 -0.0634 0.6036
vn -0.2725 -0.9195 0.2834
vn -0.2565 -0.7759 0.5763
vn -0.4023 -0.0500 0.9141
vn -0.6925 -0.2105 0.6900
vn -0.0028 -0.7412 0.6712
vn 0.0094 0.1171 0.9931
vn -0.4023 -0.0500 0.9141
vn -0.2565 -0.7759 0.5763
vn -0.4300 -0.8187 0.3806
vn -0.2725 -0.9195 0.2834
vn -0.6925 -0.2105 0.6900
vn -0.7947 -0.0634 0.6036
vn -0.8886 0.0863 0.4505
vn -0.6553 -0.7154 0.2422
vn -0.4300 -0.8187 0.3806
vn -0.7947 -0.0634 0.6036
vn -0.9974 -0.0289 0.0654
vn -0.8886 0.0863 0.4505
vn -0.9454 0.2017 0.2560
vn -0.9816 0.1905 0.0155
vn -0.6042 -0.7935 0.0728
vn -0.6553 -0.7154 0.2422
vn -0.8886 0.0863 0.4505
vn -0.9974 -0.0289 0.0654
vn -0.6189 -0.7853 0.0155
vn -0.6042 -0.7935 0.0728
vn -0.9974 -0.0289 0.0654
vn -0.9837 -0.1321 -0.1221
vn -0.5282 -0.8264 -0.1952
vn -0.6189 -0.7853 0.0155
vn -0.9837 -0.1321 -0.1221
vn -0.9344 -0.0138 -0.3561
vn -0.5282 -0.8264 -0.1952
vn -0.9344 -0.0138 -0.3561
vn -0.8467 0.0280 -0.5314
vn -0.4793 -0.8271 -0.2937
vn -0.7043 0.5205 -0.4827
vn -0.6283 0.6944 -0.3509
vn -0.8467 0.0280 -0.5314
vn -0.9344 -0.0138 -0.3561
vn -0.9344 -0.0138 -0.3561
vn -0.9325 0.3461 -0.1033
vn -0.6753 0.5955 -0.4352
vn -0.7043 0.5205 -0.4827
vn -0.9837 -0.1321 -0.1221
vn -0.9816 0.1905 0.0155
vn -0.9325 0.3461 -0.1033
vn -0.9344 -0.0138 -0.3561
vn -0.9816 0.1905 0.0155
vn -0.9837 -0.1321 -0.1221
vn -0.9974 -0.0289 0.0654
vn 0.6261 0.7569 0.1872
vn 0.5746 0.8171 -0.0464
vn -0.2019 0.9280 -0.3132
vn -0.0209 0.9322 -0.3614
vn 0.1160 0.8988 -0.4228
vn 0.0270 0.9546 -0.2966
vn -0.1558 0.8686 -0.4704
vn -0.2019 0.9280 -0.3132
vn -0.1558 0.8686 -0.4704
vn -0.4381 0.7947 -0.4202
vn -0.2019 0.9280 -0.3132
vn -0.0209 0.9322 -0.3614
vn -0.2019 0.9280 -0.3132
vn -0.3853 0.8434 -0.3744
vn -0.3052 0.8374 -0.4534
vn -0.2019 0.9280 -0.3132
vn 0.5746 0.8171 -0.0464
vn 0.2226 0.8923 -0.3927
vn -0.2019 0.9280 -0.3132
vn 0.2226 0.8923 -0.3927
vn 0.1160 0.8988 -0.4228
vn -0.4381 0.7947 -0.4202
vn -0.4120 0.8010 -0.4343
vn -0.3853 0.8434 -0.3744
vn -0.2019 0.9280 -0.3132
vn -0.3853 0.8434 -0.3744
vn -0.4120 0.8010 -0.4343
vn -0.4198 0.8429 -0.3367
vn -0.3195 0.8285 -0.4598
vn -0.3052 0.8374 -0.4534
vn -0.3853 0.8434 -0.3744
vn -0.3195 0.8285 -0.4598
vn -0.2170 0.8376 -0.5014
vn -0.3195 0.8285 -0.4598
vn -0.4198 0.8429 -0.3367
vn -0.7043 0.5205 -0.4827
vn -0.6753 0.5955 -0.4352
vn -0.6753 0.5955 -0.4352
vn -0.5591 0.7394 -0.3751
vn -0.2170 0.8376 -0.5014
vn -0.3195 0.8285 -0.4598
vn -0.5591 0.7394 -0.3751
vn -0.6166 0.7851 -0.0592
vn -0.4070 0.9123 -0.0448
vn -0.2170 0.8376 -0.5014
vn -0.0209 0.9322 -0.3614
vn -0.3052 0.8374 -0.4534
vn -0.1947 0.9779 0.0762
vn -0.0110 0.9962 -0.0867
vn -0.3052 0.8374 -0.4534
vn -0.2170 0.8376 -0.5014
vn -0.4070 0.9123 -0.0448
vn -0.1947 0.9779 0.0762
vn -0.0209 0.9322 -0.3614
vn -0.0110 0.9962 -0.0867
vn 0.3521 0.9259 0.1369
vn -0.0209 0.9322 -0.3614
vn 0.3521 0.9259 0.1369
vn 0.5215 0.8244 0.2201
vn -0.0209 0.9322 -0.3614
vn 0.5215 0.8244 0.2201
vn 0.6225 0.7454 0.2385
vn -0.0209 0.9322 -0.3614
vn 0.6225 0.7454 0.2385
vn 0.5938 0.7896 0.1545
vn 0.6261 0.7569 0.1872
vn -0.0209 0.9322 -0.3614
vn 0.5938 0.7896 0.1545
vn -0.7558 0.0422 -0.6535
vn -0.4182 -0.7083 -0.5687
vn -0.4793 -0.8271 -0.2937
vn -0.8467 0.0280 -0.5314
vn -0.6283 0.6944 -0.3509
vn -0.5387 0.7134 -0.4481
vn -0.7558 0.0422 -0.6535
vn -0.8467 0.0280 -0.5314
vn -0.5387 0.7134 -0.4481
vn -0.6283 0.6944 -0.3509
vn -0.4198 0.8429 -0.3367
vn -0.6283 0.6944 -0.3509
vn -0.7043 0.5205 -0.4827
vn -0.4198 0.8429 -0.3367
vn -0.9454 0.2017 0.2560
vn -0.8886 0.0863 0.4505
vn -0.7947 -0.0634 0.6036
vn -0.8771 0.4712 0.0932
vn -0.4182 -0.7083 -0.5687
vn -0.2751 -0.8136 -0.5122
vn 0.0017 -1.0000 0.0025
vn -0.2751 -0.8136 -0.5122
vn -0.1570 -0.8023 -0.5760
vn 0.0017 -1.0000 0.0025
vn -0.1570 -0.8023 -0.5760
vn -0.0574 -0.8536 -0.5178
vn 0.0017 -1.0000 0.0025
vn -0.0574 -0.8536 -0.5178
vn 0.1164 -0.6599 -0.7423
vn 0.0017 -1.0000 0.0025
vn 0.1164 -0.6599 -0.7423
vn 0.2324 -0.7616 -0.6049
vn 0.0017 -1.0000 0.0025
vn 0.2324 -0.7616 -0.6049
vn 0.3760 -0.7709 -0.5142
vn 0.0017 -1.0000 0.0025
vn 0.3760 -0.7709 -0.5142
vn 0.3987 -0.8605 -0.3171
vn 0.0017 -1.0000 0.0025
vn 0.3987 -0.8605 -0.3171
vn 0.6277 -0.7212 -0.2932
vn 0.0017 -1.0000 0.0025
vn 0.6277 -0.7212 -0.2932
vn 0.5225 -0.8509 -0.0553
vn 0.0017 -1.0000 0.0025
vn 0.5225 -0.8509 -0.0553
vn 0.7865 -0.6171 0.0251
vn 0.0017 -1.0000 0.0025
vn 0.7865 -0.6171 0.0251
vn 0.8348 -0.4908 0.2494
vn 0.0017 -1.0000 0.0025
vn 0.8348 -0.4908 0.2494
vn 0.6462 -0.6563 0.3896
vn 0.0017 -1.0000 0.0025
vn 0.6462 -0.6563 0.3896
vn 0.4196 -0.7310 0.5381
vn 0.0017 -1.0000 0.0025
vn 0.4196 -0.7310 0.5381
vn 0.3521 -0.6881 0.6345
vn 0.0017 -1.0000 0.0025
vn 0.3521 -0.6881 0.6345
vn 0.1001 -0.7820 0.6152
vn 0.0017 -1.0000 0.0025
vn 0.1001 -0.7820 0.6152
vn -0.0028 -0.7412 0.6712
vn 0.0017 -1.0000 0.0025
vn -0.0028 -0.7412 0.6712
vn -0.2565 -0.7759 0.5763
vn 0.0017 -1.0000 0.0025
vn -0.2565 -0.7759 0.5763
vn -0.2725 -0.9195 0.2834
vn 0.0017 -1.0000 0.0025
vn -0.2725 -0.9195 0.2834
vn -0.4300 -0.8187 0.3806
vn 0.0017 -1.0000 0.0025
vn -0.4300 -0.8187 0.3806
vn -0.6553 -0.7154 0.2422
vn 0.0017 -1.0000 0.0025
vn -0.6553 -0.7154 0.2422
vn -0.6042 -0.7935 0.0728
vn 0.0017 -1.0000 0.0025
vn -0.6042 -0.7935 0.0728
vn -0.6189 -0.7853 0.0155
vn 0.0017 -1.0000 0.0025
vn -0.6189 -0.7853 0.0155
vn -0.5282 -0.8264 -0.1952
vn 0.0017 -1.0000 0.0025
vn -0.5282 -0.8264 -0.1952
vn -0.4793 -0.8271 -0.2937
vn 0.0017 -1.0000 0.0025
vn -0.4793 -0.8271 -0.2937
vn -0.4182 -0.7083 -0.5687
vn 0.0017 -1.0000 0.0025
# 450 vertex normals

vt 0.2362 0.1890 0.0000
vt 0.2535 0.1565 0.0000
vt 0.2738 0.2072 0.0000
vt 0.2439 0.2282 0.0000
vt 0.4595 0.0837 0.0000
vt 0.4586 0.1370 0.0000
vt 0.4196 0.0767 0.0000
vt 0.4390 0.0580 0.0000
vt 0.4688 0.0098 0.0000
vt 0.4718 0.0284 0.0000
vt 0.4484 0.0284 0.0000
vt 0.4319 0.0010 0.0000
vt 0.4148 0.0126 0.0000
vt 0.3405 0.1657 0.0000
vt 0.3125 0.1040 0.0000
vt 0.2800 0.0248 0.0000
vt 0.1837 0.0510 0.0000
vt 0.1487 0.0719 0.0000
vt 0.2046 0.2134 0.0000
vt 0.2303 0.2440 0.0000
vt 0.0998 0.1292 0.0000
vt 0.0086 0.2791 0.0000
vt 0.0619 0.1461 0.0000
vt 0.0728 0.1578 0.0000
vt 0.0208 0.2833 0.0000
vt 0.0933 0.1096 0.0000
vt 0.1441 0.0654 0.0000
vt 0.1810 0.0407 0.0000
vt 0.2810 0.0093 0.0000
vt 0.0293 0.3432 0.0000
vt 0.0010 0.3609 0.0000
vt 0.2012 0.2484 0.0000
vt 0.2206 0.2588 0.0000
vt 0.1809 0.3181 0.0000
vt 0.1909 0.3221 0.0000
vt 0.1873 0.3672 0.0000
vt 0.1646 0.3557 0.0000
vt 0.0502 0.3817 0.0000
vt 0.0248 0.4247 0.0000
vt 0.0128 0.4276 0.0000
vt 0.0707 0.5537 0.0000
vt 0.2409 0.4452 0.0000
vt 0.0644 0.5574 0.0000
vt 0.2217 0.4869 0.0000
vt 0.2683 0.4591 0.0000
vt 0.0805 0.5793 0.0000
vt 0.2878 0.4637 0.0000
vt 0.3260 0.4555 0.0000
vt 0.3209 0.4925 0.0000
vt 0.2992 0.4902 0.0000
vt 0.3084 0.6599 0.0000
vt 0.2876 0.6574 0.0000
vt 0.3255 0.6835 0.0000
vt 0.2628 0.6696 0.0000
vt 0.2893 0.6971 0.0000
vt 0.2705 0.6912 0.0000
vt 0.1231 0.6087 0.0000
vt 0.1577 0.6168 0.0000
vt 0.3323 0.4673 0.0000
vt 0.3683 0.4457 0.0000
vt 0.3642 0.4360 0.0000
vt 0.3991 0.6851 0.0000
vt 0.4012 0.4215 0.0000
vt 0.4116 0.4394 0.0000
vt 0.3799 0.4225 0.0000
vt 0.4682 0.6718 0.0000
vt 0.3988 0.7091 0.0000
vt 0.4793 0.6890 0.0000
vt 0.5225 0.3944 0.0000
vt 0.5326 0.4111 0.0000
vt 0.6504 0.5471 0.0000
vt 0.5338 0.3896 0.0000
vt 0.5422 0.3979 0.0000
vt 0.5763 0.3374 0.0000
vt 0.5635 0.3245 0.0000
vt 0.6099 0.2959 0.0000
vt 0.5742 0.2678 0.0000
vt 0.6754 0.3448 0.0000
vt 0.6755 0.3132 0.0000
vt 0.6716 0.5144 0.0000
vt 0.6936 0.4607 0.0000
vt 0.6844 0.5223 0.0000
vt 0.6549 0.5566 0.0000
vt 0.7013 0.4630 0.0000
vt 0.6999 0.3780 0.0000
vt 0.7160 0.3761 0.0000
vt 0.6905 0.2988 0.0000
vt 0.7164 0.3276 0.0000
vt 0.7134 0.2882 0.0000
vt 0.6902 0.2743 0.0000
vt 0.6376 0.1296 0.0000
vt 0.6204 0.1434 0.0000
vt 0.5530 0.0764 0.0000
vt 0.5669 0.0629 0.0000
vt 0.5632 0.1376 0.0000
vt 0.5126 0.1077 0.0000
vt 0.2843 0.2796 0.0000
vt 0.3324 0.3506 0.0000
vt 0.3740 0.2168 0.0000
vt 0.4156 0.2982 0.0000
vt 0.4919 0.2113 0.0000
vt 0.5172 0.2976 0.0000
vt 0.2468 0.9640 0.0000
vt 0.2346 0.9699 0.0000
vt 0.1483 0.8455 0.0000
vt 0.1729 0.9881 0.0000
vt 0.1295 0.9984 0.0000
vt 0.1114 0.9990 0.0000
vt 0.0843 0.9900 0.0000
vt 0.0679 0.9808 0.0000
vt 0.0273 0.9321 0.0000
vt 0.0071 0.9049 0.0000
vt 0.0010 0.8785 0.0000
vt 0.0012 0.8165 0.0000
vt 0.0015 0.8050 0.0000
vt 0.0123 0.7856 0.0000
vt 0.0618 0.7281 0.0000
vt 0.0686 0.7241 0.0000
vt 0.1157 0.7148 0.0000
vt 0.1502 0.7098 0.0000
vt 0.2484 0.7203 0.0000
vt 0.2596 0.7339 0.0000
vt 0.2792 0.7518 0.0000
vt 0.3014 0.7825 0.0000
vt 0.3034 0.8022 0.0000
vt 0.3051 0.8174 0.0000
vt 0.2902 0.8912 0.0000
vt 0.2720 0.9258 0.0000
# 128 texture coords

o Box004
g Box004
s 1
f 2/1/1 3/2/2 4/3/3 1/4/4 
f 5/5/5 6/6/6 7/7/7 
s 2
f 5/5/8 7/7/9 8/8/10 
s 1
f 10/9/11 11/10/12 12/11/13 9/12/14 
f 13/13/15 9/12/16 12/11/17 
f 7/7/18 6/6/19 15/14/20 14/15/21 
f 3/2/22 14/15/23 15/14/24 4/3/25 
s 2
f 8/8/26 12/11/27 11/10/28 5/5/29 
s 4
f 8/8/30 7/7/31 13/13/32 12/11/33 
f 7/7/34 14/15/35 16/16/36 13/13/37 
f 14/15/38 3/2/39 17/17/40 16/16/41 
s 8
f 3/2/42 2/1/43 18/18/44 17/17/45 
s 2
f 20/19/46 2/1/47 1/4/48 19/20/49 
s 8
f 21/21/50 18/18/51 2/1/52 20/19/53 
s 1
f 23/22/54 24/23/55 25/24/56 22/25/57 
s 2
f 26/26/58 27/27/59 18/18/60 21/21/61 
f 17/17/62 18/18/63 27/27/64 28/28/65 
s 1
f 28/28/66 29/29/67 16/16/68 17/17/69 
f 29/29/70 9/12/71 13/13/72 16/16/73 
f 24/23/74 26/26/75 21/21/76 25/24/77 
f 30/30/78 31/31/79 23/22/80 22/25/81 
s 2
f 33/32/82 20/19/83 19/20/84 32/33/85 
s 4
f 25/24/86 21/21/87 20/19/88 33/32/89 
f 22/25/90 25/24/91 33/32/92 34/34/93 
s 2
f 34/34/94 33/32/95 32/33/96 35/35/97 
f 35/35/98 36/36/99 37/37/100 34/34/101 
s 4
f 38/38/102 30/30/103 37/37/104 
s 1
f 38/38/105 39/39/106 31/31/107 30/30/108 
s 8
f 39/39/109 40/40/110 31/31/111 
s 4
f 30/30/112 22/25/113 34/34/114 37/37/115 
s 16
f 38/38/116 37/37/117 36/36/118 39/39/119 
f 42/41/120 39/39/121 36/36/122 41/42/123 
s 8
f 40/40/124 39/39/125 42/41/126 43/43/127 
s 16
f 44/44/128 41/42/129 45/45/130 
f 42/41/131 41/42/132 44/44/133 46/46/134 
s 8
f 43/43/135 42/41/136 46/46/137 
s 16
f 47/47/138 48/48/139 49/49/140 50/50/141 
s 2
f 51/51/142 52/52/143 50/50/144 49/49/145 
s 16
f 52/52/146 51/51/147 53/53/148 54/54/149 
f 54/54/150 53/53/151 55/55/152 56/56/153 
s 32
f 56/56/154 57/57/155 58/58/156 54/54/157 
s 1
f 58/58/158 57/57/159 46/46/160 44/44/161 
s 16
f 48/48/162 59/59/163 49/49/164 
s 8
f 50/50/165 44/44/166 45/45/167 47/47/168 
f 44/44/169 50/50/170 52/52/171 58/58/172 
f 54/54/173 58/58/174 52/52/175 
s 32
f 61/60/176 59/59/177 48/48/178 60/61/179 
s 1
f 53/53/180 51/51/181 49/49/182 59/59/183 
f 59/59/184 61/60/185 62/62/186 53/53/187 
s 32
f 63/63/188 64/64/189 61/60/190 60/61/191 
f 60/61/192 65/65/193 63/63/194 
s 1
f 62/62/195 61/60/196 64/64/197 66/66/198 
s 4
f 67/67/199 55/55/200 53/53/201 62/62/202 
f 62/62/203 66/66/204 68/68/205 67/67/206 
s 32
f 69/69/207 70/70/208 64/64/209 63/63/210 
s 1
f 66/66/211 64/64/212 70/70/213 71/71/214 
s 16
f 70/70/215 69/69/216 73/72/217 72/73/218 
f 74/74/219 72/73/220 73/72/221 75/75/222 
f 77/76/223 74/74/224 75/75/225 76/77/226 
s 8
f 79/78/227 74/74/228 77/76/229 78/79/230 
s 2
f 80/80/231 71/71/232 70/70/233 72/73/234 
f 80/80/235 72/73/236 74/74/237 81/81/238 
s 8
f 82/82/239 83/83/240 71/71/241 80/80/242 
s 4
f 68/68/243 66/66/244 71/71/245 83/83/246 
s 8
f 84/84/247 82/82/248 80/80/249 81/81/250 
f 85/85/251 86/86/252 84/84/253 81/81/254 
s 1
f 87/87/255 85/85/256 79/78/257 78/79/258 
f 88/88/259 86/86/260 85/85/261 87/87/262 
f 90/89/263 88/88/264 87/87/265 89/90/266 
s 8
f 91/91/267 90/89/268 89/90/269 92/92/270 
f 91/91/271 92/92/272 93/93/273 94/94/274 
s 4
f 95/95/275 96/96/276 93/93/277 92/92/278 
f 92/92/279 77/76/280 76/77/281 95/95/282 
f 89/90/283 78/79/284 77/76/285 92/92/286 
s 1
f 78/79/287 89/90/288 87/87/289 
s 4
f 41/42/290 36/36/291 98/97/292 97/98/293 
f 32/33/294 19/20/295 1/4/296 98/97/297 
s 2
f 1/4/298 4/3/299 98/97/300 
f 97/98/301 98/97/302 99/99/303 100/100/304 
s 4
f 98/97/305 36/36/306 35/35/307 
f 98/97/308 35/35/309 32/33/310 
s 2
f 4/3/311 15/14/312 99/99/313 98/97/314 
f 99/99/315 15/14/316 6/6/317 101/101/318 
f 100/100/319 99/99/320 101/101/321 102/102/322 
f 101/101/323 6/6/324 95/95/325 76/77/326 
f 76/77/327 75/75/328 102/102/329 101/101/330 
f 75/75/331 73/72/332 69/69/333 102/102/334 
f 97/98/335 100/100/336 63/63/337 65/65/338 
f 100/100/339 102/102/340 69/69/341 63/63/342 
s 4
f 97/98/343 65/65/344 60/61/345 
f 97/98/346 60/61/347 48/48/348 
f 97/98/349 48/48/350 47/47/351 
f 97/98/352 47/47/353 45/45/354 
f 41/42/355 97/98/356 45/45/357 
s 8
f 11/10/358 10/9/359 94/94/360 93/93/361 
s 4
f 96/96/362 5/5/363 11/10/364 93/93/365 
s 1
f 5/5/366 96/96/367 6/6/368 
f 96/96/369 95/95/370 6/6/371 
s 2
f 79/78/372 85/85/373 81/81/374 74/74/375 
s off
f 10/103/376 9/104/377 103/105/378 
f 9/104/379 29/106/380 103/105/381 
f 29/106/382 28/107/383 103/105/384 
f 28/107/385 27/108/386 103/105/387 
f 27/108/388 26/109/389 103/105/390 
f 26/109/391 24/110/392 103/105/393 
f 24/110/394 23/111/395 103/105/396 
f 23/111/397 31/112/398 103/105/399 
f 31/112/400 40/113/401 103/105/402 
f 40/113/403 43/114/404 103/105/405 
f 43/114/406 46/115/407 103/105/408 
f 46/115/409 57/116/410 103/105/411 
f 57/116/412 56/117/413 103/105/414 
f 56/117/415 55/118/416 103/105/417 
f 55/118/418 67/119/419 103/105/420 
f 67/119/421 68/120/422 103/105/423 
f 68/120/424 83/121/425 103/105/426 
f 83/121/427 82/122/428 103/105/429 
f 82/122/430 84/123/431 103/105/432 
f 84/123/433 86/124/434 103/105/435 
f 86/124/436 88/125/437 103/105/438 
f 88/125/439 90/126/440 103/105/441 
f 90/126/442 91/127/443 103/105/444 
f 91/127/445 94/128/446 103/105/447 
f 94/128/448 10/103/449 103/105/450 
# 78 polygons - 46 triangles

