# 3ds Max Wavefront OBJ Exporter v0.99 - (c)2007 guruware
# File Created: 13.08.2023 01:51:04

mtllib BRock02_L.mtl

#
# object Box003
#

v  -0.4681 1.3110 0.3840
v  -0.5773 1.2534 0.4299
v  -0.3810 1.0868 0.8420
v  -0.2414 1.1684 0.8002
v  -0.0802 1.1327 0.8307
v  -0.3962 0.8925 1.0069
v  -0.0432 1.0596 0.8848
v  -0.4704 1.3229 0.2940
v  -0.5259 1.2925 0.3049
v  -0.4160 1.3384 -0.4718
v  -0.4563 1.2887 -0.5059
v  -0.1926 1.1690 -0.8710
v  -0.0687 1.2281 -0.8670
v  0.0444 1.1596 -0.9217
v  -0.0553 1.0415 -0.9619
v  0.0899 1.2830 -0.7738
v  -0.0290 1.3042 -0.7830
v  -0.5296 1.1332 -0.6693
v  -0.7925 0.3973 -0.5302
v  0.0146 0.1843 -1.0930
v  0.0103 0.0142 -1.0596
v  -0.7749 0.0376 -0.4076
v  -0.8817 0.0711 -0.2452
v  -0.8422 0.4135 -0.4137
v  -0.7306 -0.0602 -0.3475
v  -0.8572 -0.0572 -0.2063
v  -0.9874 0.4354 0.5968
v  -0.9364 0.0624 0.6025
v  -0.8779 -0.0426 0.4730
v  -0.8165 -0.0507 0.6716
v  -0.8491 0.0008 0.6957
v  -0.6714 0.1850 1.0758
v  -0.6777 0.3095 1.0977
v  -0.7225 0.2891 1.0532
v  -0.6272 0.0080 1.0023
v  -0.5899 -0.0489 0.9651
v  0.5284 0.9962 0.7149
v  0.5186 1.0237 0.6960
v  0.7252 1.0134 0.4401
v  0.7022 1.0356 0.4378
v  0.7827 0.8444 0.6381
v  0.7650 0.8408 0.6878
v  0.8516 0.6417 0.6871
v  0.8325 0.6407 0.7315
v  0.8832 0.3078 0.8253
v  0.9668 0.2672 0.6555
v  0.6959 0.0080 0.7515
v  0.7866 0.0106 0.6340
v  0.5457 -0.0573 0.7374
v  0.7177 -0.0629 0.4606
v  0.6861 1.1025 -0.6496
v  0.6225 1.1681 -0.6105
v  0.6623 1.0794 0.2065
v  0.7251 1.0373 0.1883
v  0.5715 1.0980 -0.7899
v  0.5094 1.1973 -0.6986
v  0.7102 1.0197 -0.7359
v  0.7013 1.0286 -0.7615
v  0.9263 0.4159 -0.7195
v  0.9107 0.3571 -0.7784
v  0.9154 0.2783 -0.7845
v  0.9213 0.2604 -0.7569
v  0.8491 0.1394 -0.8296
v  0.8427 0.1496 -0.8466
v  0.6527 -0.0043 -0.9673
v  0.7303 -0.0530 -0.8716
v  0.6433 -0.0543 -0.9570
v  0.2016 -0.0443 -1.0325
v  0.2070 0.1149 -1.0529
v  0.0603 -0.0485 -1.0440
v  0.9364 0.3787 -0.6614
v  0.9327 0.2801 -0.6921
v  0.9584 0.3276 -0.5084
v  0.9590 0.3081 -0.5105
v  0.9651 0.2683 0.3864
v  0.9624 0.3143 0.3884
v  0.9514 0.2609 0.1219
v  0.9582 0.3296 0.1180
v  0.7725 0.8712 0.4214
v  0.8828 0.5799 0.4026
v  0.7357 0.9619 -0.6511
v  0.8980 0.5124 0.1362
v  0.7733 0.8909 0.1737
v  0.7318 -0.0562 0.1338
v  0.7347 -0.0509 -0.4507
v  0.7334 -0.0503 -0.6542
v  0.8033 0.0656 -0.6675
# 87 vertices

vn -0.1103 0.9665 0.2316
vn -0.6652 0.7034 0.2505
vn -0.4239 0.6410 0.6398
vn -0.0272 0.8303 0.5567
vn 0.1336 0.8420 0.5226
vn -0.2729 0.3840 0.8821
vn 0.2184 0.4179 0.8819
vn -0.1462 0.9870 0.0672
vn -0.5778 0.8161 -0.0079
vn -0.3468 0.9210 -0.1775
vn -0.6763 0.6694 -0.3075
vn -0.4238 0.4762 -0.7705
vn -0.1648 0.6657 -0.7278
vn 0.1332 0.4604 -0.8776
vn -0.1488 0.2040 -0.9676
vn 0.2156 0.9440 -0.2498
vn 0.0152 0.9274 -0.3737
vn -0.7209 0.4197 -0.5515
vn -0.7886 -0.0337 -0.6140
vn -0.1686 -0.0009 -0.9857
vn -0.3436 -0.3269 -0.8804
vn -0.7025 -0.4283 -0.5683
vn -0.9527 -0.1295 -0.2749
vn -0.9504 0.1433 -0.2759
vn -0.3197 -0.8950 -0.3111
vn -0.6392 -0.7402 -0.2087
vn -0.9563 0.1956 0.2174
vn -0.9074 -0.3503 0.2320
vn -0.5311 -0.8470 0.0231
vn -0.4335 -0.8788 0.1994
vn -0.7495 -0.4667 0.4694
vn -0.3565 -0.3227 0.8768
vn -0.3413 0.1012 0.9345
vn -0.8171 0.0258 0.5759
vn -0.3146 -0.5270 0.7895
vn -0.1211 -0.8346 0.5374
vn 0.4236 0.5167 0.7441
vn 0.3954 0.7804 0.4844
vn 0.7943 0.5739 0.1992
vn 0.4980 0.8392 0.2183
vn 0.8727 0.4496 0.1905
vn 0.5926 0.5247 0.6111
vn 0.9210 0.3153 0.2286
vn 0.6023 0.3253 0.7290
vn 0.6044 -0.0634 0.7941
vn 0.9538 -0.1869 0.2351
vn 0.3892 -0.6534 0.6493
vn 0.6607 -0.7155 0.2273
vn 0.1533 -0.8770 0.4554
vn 0.4261 -0.9041 0.0308
vn 0.7680 0.6038 -0.2136
vn 0.4837 0.8706 -0.0904
vn 0.3927 0.9150 0.0929
vn 0.8013 0.5974 0.0317
vn 0.3752 0.4849 -0.7900
vn 0.3113 0.9068 -0.2843
vn 0.9223 0.3610 -0.1377
vn 0.6253 0.5917 -0.5088
vn 0.9506 0.2119 -0.2270
vn 0.7265 0.1114 -0.6781
vn 0.7868 0.0103 -0.6172
vn 0.9490 -0.2684 -0.1656
vn 0.8673 -0.4168 -0.2721
vn 0.6588 -0.1174 -0.7431
vn 0.4083 -0.0306 -0.9123
vn 0.5547 -0.7750 -0.3028
vn 0.2966 -0.7412 -0.6022
vn 0.0842 -0.7299 -0.6783
vn 0.2231 0.0700 -0.9723
vn -0.0900 -0.7621 -0.6411
vn 0.9837 0.1610 -0.0796
vn 0.9640 -0.2410 -0.1121
vn 0.9793 0.1990 -0.0376
vn 0.9698 -0.2365 -0.0594
vn 0.9585 -0.2838 -0.0253
vn 0.9841 0.1776 0.0051
vn 0.9347 -0.3544 -0.0274
vn 0.9935 0.1136 -0.0042
vn 0.9427 0.3334 0.0136
vn 0.9471 0.3209 0.0033
vn 0.9437 0.3287 -0.0372
vn 0.9492 0.3143 -0.0163
vn 0.9499 0.3124 0.0059
vn 0.4643 -0.8857 -0.0011
vn 0.4888 -0.8724 -0.0071
vn 0.4969 -0.8678 -0.0004
vn 0.8563 -0.5165 0.0000
# 87 vertex normals

vt 0.2768 0.3826 0.0000
vt 0.2559 0.3775 0.0000
vt 0.2514 0.2885 0.0000
vt 0.2817 0.2966 0.0000
vt 0.3047 0.2808 0.0000
vt 0.2206 0.2521 0.0000
vt 0.3040 0.2664 0.0000
vt 0.2816 0.3981 0.0000
vt 0.2710 0.3982 0.0000
vt 0.3210 0.5340 0.0000
vt 0.3107 0.5454 0.0000
vt 0.3910 0.5942 0.0000
vt 0.4132 0.5813 0.0000
vt 0.4409 0.5885 0.0000
vt 0.4216 0.6202 0.0000
vt 0.4325 0.5504 0.0000
vt 0.4119 0.5602 0.0000
vt 0.3152 0.5933 0.0000
vt 0.2484 0.7278 0.0000
vt 0.4306 0.7863 0.0000
vt 0.4230 0.8185 0.0000
vt 0.2294 0.7970 0.0000
vt 0.1926 0.7911 0.0000
vt 0.2246 0.7225 0.0000
vt 0.2259 0.8201 0.0000
vt 0.1892 0.8170 0.0000
vt 0.2817 0.5830 0.0000
vt 0.1212 0.5513 0.0000
vt 0.0915 0.3608 0.0000
vt 0.0500 0.5251 0.0000
vt 0.0237 0.3610 0.0000
vt 0.0241 0.5214 0.0000
vt 0.0049 0.3882 0.0000
vt 0.0000 0.3372 0.0000
vt 0.0128 0.3362 0.0000
vt 0.0578 0.2508 0.0000
vt 0.0855 0.2477 0.0000
vt 0.0792 0.2587 0.0000
vt 0.0189 0.2594 0.0000
vt 0.0041 0.2606 0.0000
vt 0.4174 0.2453 0.0000
vt 0.4169 0.2528 0.0000
vt 0.4727 0.2850 0.0000
vt 0.4675 0.2879 0.0000
vt 0.4840 0.2366 0.0000
vt 0.4778 0.2282 0.0000
vt 0.5194 0.2107 0.0000
vt 0.5154 0.2024 0.0000
vt 0.5741 0.1591 0.0000
vt 0.5915 0.1900 0.0000
vt 0.6487 0.1404 0.0000
vt 0.6464 0.1694 0.0000
vt 0.4570 0.2082 0.0000
vt 0.4595 0.1680 0.0000
vt 0.1513 0.1500 0.0000
vt 0.4542 0.1017 0.0000
vt 0.1497 0.1260 0.0000
vt 0.4115 0.0472 0.0000
vt 0.1551 0.0888 0.0000
vt 0.1614 0.0754 0.0000
vt 0.3815 0.0371 0.0000
vt 0.6756 0.1917 0.0000
vt 0.6814 0.1305 0.0000
vt 0.5388 0.4862 0.0000
vt 0.5193 0.4845 0.0000
vt 0.4775 0.3339 0.0000
vt 0.4913 0.3315 0.0000
vt 0.5257 0.5220 0.0000
vt 0.5034 0.5078 0.0000
vt 0.5563 0.5094 0.0000
vt 0.5525 0.5131 0.0000
vt 0.6669 0.5623 0.0000
vt 0.6696 0.5783 0.0000
vt 0.6806 0.5886 0.0000
vt 0.6869 0.5875 0.0000
vt 0.6906 0.6177 0.0000
vt 0.6868 0.6185 0.0000
vt 0.6794 0.6698 0.0000
vt 0.7026 0.6605 0.0000
vt 0.6854 0.6776 0.0000
vt 0.6223 0.7355 0.0000
vt 0.6012 0.7133 0.0000
vt 0.5652 0.7300 0.0000
vt 0.5883 0.7534 0.0000
vt 0.6038 0.7551 0.0000
vt 0.4270 0.8335 0.0000
vt 0.4433 0.6183 0.0000
vt 0.6725 0.4399 0.0000
vt 0.6745 0.4269 0.0000
vt 0.6948 0.4236 0.0000
vt 0.6884 0.4454 0.0000
vt 0.7038 0.4332 0.0000
vt 0.7029 0.4395 0.0000
vt 0.6719 0.3957 0.0000
vt 0.6755 0.3946 0.0000
vt 0.6113 0.2360 0.0000
vt 0.6032 0.2391 0.0000
vt 0.6340 0.2807 0.0000
vt 0.6224 0.2867 0.0000
vt 0.4993 0.2768 0.0000
vt 0.5540 0.2563 0.0000
vt 0.5610 0.4941 0.0000
vt 0.5654 0.4743 0.0000
vt 0.5879 0.2980 0.0000
vt 0.5178 0.3222 0.0000
vt 0.6993 0.2492 0.0000
vt 0.7442 0.3510 0.0000
vt 0.7603 0.3863 0.0000
vt 0.7376 0.3995 0.0000
vt 0.7349 0.4345 0.0000
vt 0.7781 0.4236 0.0000
vt 0.9894 0.2159 0.0000
vt 1.0000 0.1812 0.0000
vt 0.8595 -0.0000 0.0000
vt 0.9222 0.0325 0.0000
vt 0.9079 0.3997 0.0000
vt 0.8825 0.4091 0.0000
vt 0.9489 0.0619 0.0000
vt 0.8000 0.4314 0.0000
# 119 texture coords

o Box003
g Box003
usemtl wire_028149177
s 2
f 1/1/1 2/2/2 3/3/3 4/4/4 
s 32
f 4/4/4 3/3/3 5/5/5 
f 5/5/5 3/3/3 6/6/6 7/7/7 
s 2
f 8/8/8 9/9/9 2/2/2 1/1/1 
f 10/10/10 11/11/11 9/9/9 8/8/8 
s 1
f 12/12/12 13/13/13 14/14/14 15/15/15 
s 2
f 16/16/16 14/14/14 13/13/13 17/17/17 
f 11/11/11 10/10/10 17/17/17 13/13/13 
s 1
f 13/13/13 12/12/12 18/18/18 11/11/11 
f 12/12/12 15/15/15 18/18/18 
f 19/19/19 18/18/18 15/15/15 20/20/20 
s 16
f 19/19/19 20/20/20 21/21/21 22/22/22 
s 2
f 19/19/19 22/22/22 23/23/23 24/24/24 
f 23/23/23 22/22/22 25/25/25 26/26/26 
f 18/18/18 19/19/19 24/24/24 
s 1
f 11/11/11 18/27/18 2/2/2 9/9/9 
f 2/2/2 18/27/18 24/28/24 27/29/27 
s 16
f 27/29/27 24/28/24 23/30/23 28/31/28 
f 28/31/28 23/30/23 26/32/26 29/33/29 
f 28/31/28 29/33/29 30/34/30 31/35/31 
s 2
f 32/36/32 33/37/33 34/38/34 
s 16
f 32/36/32 34/38/34 27/29/27 28/31/28 
f 32/36/32 28/31/28 31/35/31 35/39/35 
f 35/39/35 31/35/31 30/34/30 36/40/36 
s 2
f 34/38/34 33/37/33 6/6/6 3/3/3 
s 1
f 2/2/2 27/29/27 34/38/34 3/3/3 
s 2
f 37/41/37 38/42/38 5/5/5 7/7/7 
s 32
f 38/42/38 37/41/37 39/43/39 40/44/40 
f 41/45/41 39/43/39 37/41/37 42/46/42 
s 2
f 43/47/43 41/45/41 42/46/42 44/48/44 
s 32
f 44/48/44 45/49/45 46/50/46 43/47/43 
s 2
f 47/51/47 48/52/48 46/50/46 45/49/45 
s 8
f 42/53/42 37/41/37 7/7/7 6/6/6 
f 44/54/44 42/53/42 6/6/6 33/55/33 
f 45/56/45 44/54/44 33/55/33 32/57/32 
s 4
f 47/58/47 45/56/45 32/57/32 35/59/35 
f 47/58/47 35/59/35 36/60/36 49/61/49 
s 2
f 50/62/50 48/52/48 47/51/47 49/63/49 
f 51/64/51 52/65/52 53/66/53 54/67/54 
s 32
f 51/64/51 55/68/55 56/69/56 52/65/52 
f 55/68/55 51/64/51 57/70/57 58/71/58 
s 2
f 16/16/16 56/69/56 55/68/55 14/14/14 
f 58/71/58 57/70/57 59/72/59 60/73/60 
f 61/74/61 62/75/62 63/76/63 64/77/64 
f 65/78/65 64/77/64 63/76/63 66/79/66 
s 10
f 66/79/66 67/80/67 65/78/65 
s 8
f 68/81/68 69/82/69 65/78/65 67/80/67 
f 20/83/20 69/82/69 68/81/68 21/84/21 
s off
f 21/84/21 68/81/68 70/85/70 
s 16
f 21/21/21 70/86/70 25/25/25 22/22/22 
s 4
f 55/68/55 58/71/58 15/87/15 14/14/14 
f 58/71/58 60/73/60 20/83/20 15/87/15 
s 32
f 59/88/59 71/89/71 72/90/72 60/91/60 
f 72/90/72 62/92/62 61/93/61 60/91/60 
f 73/94/73 74/95/74 72/90/72 71/89/71 
s 4
f 60/73/60 61/74/61 69/82/69 20/83/20 
f 64/77/64 65/78/65 69/82/69 61/74/61 
s 2
f 75/96/75 76/97/76 46/50/46 
f 77/98/77 78/99/78 76/97/76 75/96/75 
f 74/95/74 73/94/73 78/99/78 77/98/77 
s 1
f 39/43/39 41/45/41 79/100/79 
f 79/100/79 41/45/41 43/47/43 80/101/80 
f 43/47/43 46/50/46 76/97/76 80/101/80 
f 59/88/59 57/102/57 81/103/81 71/89/71 
f 38/42/38 40/44/40 4/4/4 5/5/5 
s 2
f 53/66/53 40/44/40 39/43/39 54/67/54 
s 1
f 40/44/40 53/66/53 1/1/1 4/4/4 
f 82/104/82 83/105/83 79/100/79 80/101/80 
f 83/105/83 54/67/54 39/43/39 79/100/79 
f 80/101/80 76/97/76 78/99/78 82/104/82 
f 57/102/57 51/64/51 81/103/81 
f 54/67/54 83/105/83 81/103/81 51/64/51 
f 71/89/71 81/103/81 83/105/83 82/104/82 
f 71/89/71 82/104/82 78/99/78 73/94/73 
f 53/66/53 52/65/52 10/10/10 8/8/8 
f 1/1/1 53/66/53 8/8/8 
f 52/65/52 56/69/56 10/10/10 
f 56/69/56 16/16/16 17/17/17 10/10/10 
s 4
f 75/96/75 46/50/46 48/52/48 50/62/50 
f 84/106/84 77/98/77 75/96/75 50/62/50 
f 85/107/85 74/95/74 77/98/77 84/106/84 
f 86/108/86 87/109/87 85/107/85 
f 72/90/72 87/109/87 63/110/63 62/92/62 
f 87/109/87 72/90/72 74/95/74 85/107/85 
f 87/109/87 86/108/86 66/111/66 63/110/63 
s 64
f 25/112/25 86/108/86 85/107/85 26/113/26 
f 50/62/50 49/63/49 36/114/36 30/115/30 
f 25/112/25 70/116/70 68/117/68 
f 84/106/84 50/62/50 30/115/30 29/118/29 
f 85/107/85 84/106/84 29/118/29 26/113/26 
f 25/112/25 66/111/66 86/108/86 
f 25/112/25 68/117/68 67/119/67 
f 25/112/25 67/119/67 66/111/66 
# 77 polygons - 16 triangles

