# 3ds Max Wavefront OBJ Exporter v0.99 - (c)2007 guruware
# File Created: 14.08.2023 00:02:02

mtllib BRock04_L.mtl

#
# object Box001
#

v  -0.6235 1.5854 -0.8548
v  -0.7427 1.4845 -0.8651
v  -0.7159 1.5697 -0.6563
v  -0.6719 1.5855 -0.6565
v  -0.5496 1.5379 0.6049
v  -0.4768 1.6001 0.5821
v  -0.6089 1.6008 1.3211
v  -0.4809 1.7151 1.3059
v  -0.5230 1.5380 1.4578
v  -0.3899 1.6599 1.4568
v  -0.6045 1.2832 1.4785
v  -0.6350 1.2834 1.4455
v  -0.6550 0.6701 1.4274
v  -0.5817 0.6385 1.5139
v  -0.6141 0.4486 1.4911
v  -0.7859 0.5573 1.3127
v  -0.7078 0.0256 1.2969
v  -0.6231 0.2134 1.4317
v  -0.4848 0.0319 1.4074
v  -1.1967 0.5504 0.3862
v  -1.1549 0.4783 0.5471
v  -1.0736 0.5693 0.7354
v  -1.1254 0.6350 0.5512
v  -0.8418 1.1132 0.5934
v  -0.8734 1.1156 0.5076
v  -1.0650 0.0555 0.5482
v  -1.0530 0.0521 0.3961
v  -0.9928 0.4053 -0.5933
v  -0.8826 0.5580 -0.8643
v  -0.7506 0.3394 -1.0413
v  -0.8866 0.0435 -0.7499
v  -0.4659 0.1475 -1.4105
v  -0.5024 0.0372 -1.3507
v  -0.0627 0.1464 -1.5358
v  -0.0370 0.0299 -1.4780
v  -0.3495 0.2199 -1.4899
v  -0.2990 0.2229 -1.5016
v  -0.3285 1.2005 -1.2867
v  -0.0904 1.1694 -1.3326
v  -0.2480 1.2406 -1.2750
v  -0.0955 1.2014 -1.3112
v  -0.5698 1.4757 -0.9935
v  -0.6300 1.4475 -0.9914
v  -0.4439 1.3104 -1.1732
v  -0.4028 1.3307 -1.1695
v  0.5721 0.1335 -1.5310
v  0.5737 0.0265 -1.4925
v  0.4485 1.1711 -1.3473
v  1.0676 0.1680 -0.9068
v  1.0226 0.0333 -0.8890
v  1.1322 0.1388 -0.5385
v  1.0882 0.0394 -0.5257
v  1.0804 0.5403 -0.8078
v  1.1221 0.5379 -0.6714
v  1.0967 0.8032 -0.8236
v  1.1189 0.8048 -0.6818
v  1.0121 1.1678 -0.8362
v  1.1134 1.1596 -0.5636
v  0.8468 1.5001 -0.8880
v  1.1374 1.4923 -0.1829
v  1.1987 0.1522 0.0106
v  1.1127 0.0234 0.0137
v  1.0861 1.6109 0.0479
v  1.1789 1.5042 0.0830
v  1.0570 1.6647 0.5949
v  1.0973 1.6585 0.6002
v  1.0108 1.6823 0.9149
v  1.0633 1.6307 0.9163
v  0.7876 1.7102 1.2132
v  0.8193 1.6221 1.3146
v  0.9840 1.4506 1.2235
v  1.0444 1.4506 1.1323
v  0.9632 0.1465 1.2548
v  1.0372 0.1533 1.1450
v  0.9108 0.0263 1.1984
v  0.9624 0.0295 1.0979
v  0.5767 1.7211 1.3645
v  0.6080 1.6361 1.4576
v  0.3938 1.7257 1.3841
v  0.4308 1.6187 1.5254
v  0.7138 0.0379 1.3409
v  0.7469 0.1520 1.3741
v  0.5521 0.1626 1.4949
v  0.5232 0.0299 1.4405
v  0.4539 0.1604 1.5199
v  0.4040 0.0167 1.4337
v  0.1968 0.0252 1.4669
v  0.2477 0.1750 1.5118
v  -0.1936 1.7031 1.4754
v  -0.2035 1.7265 1.4184
v  0.5680 1.2794 -1.1976
v  0.7490 1.4105 -1.0180
v  0.0104 0.0348 -0.0613
# 93 vertices

vn -0.2644 0.8988 -0.3496
vn -0.8353 0.4099 -0.3664
vn -0.7159 0.6967 -0.0470
vn -0.1683 0.9856 -0.0150
vn -0.7868 0.6129 0.0728
vn -0.3463 0.9356 -0.0683
vn -0.8494 0.4773 0.2254
vn -0.3988 0.9043 0.1525
vn -0.4455 0.3208 0.8358
vn -0.2819 0.5275 0.8014
vn -0.3999 0.1190 0.9088
vn -0.9297 0.1194 0.3485
vn -0.8229 0.1926 0.5346
vn -0.3871 0.0116 0.9220
vn -0.4346 -0.1190 0.8927
vn -0.8304 0.1431 0.5385
vn -0.5247 -0.7302 0.4376
vn -0.4682 -0.2381 0.8509
vn -0.1244 -0.7613 0.6363
vn -0.9895 0.1422 -0.0252
vn -0.9485 -0.0574 0.3117
vn -0.8826 0.2007 0.4252
vn -0.8911 0.3647 0.2700
vn -0.7872 0.4923 0.3716
vn -0.8294 0.5587 0.0077
vn -0.6872 -0.7156 0.1254
vn -0.6080 -0.7921 -0.0551
vn -0.9704 0.0206 -0.2404
vn -0.8676 0.0392 -0.4956
vn -0.8064 -0.0292 -0.5906
vn -0.6556 -0.7084 -0.2615
vn -0.5798 -0.1325 -0.8039
vn -0.5036 -0.6905 -0.5192
vn -0.1043 -0.1704 -0.9798
vn -0.0811 -0.8388 -0.5384
vn -0.3591 -0.1787 -0.9160
vn -0.1845 0.0214 -0.9826
vn -0.3413 0.3528 -0.8712
vn -0.0743 0.3717 -0.9254
vn -0.0606 0.6308 -0.7736
vn -0.0305 0.5960 -0.8024
vn -0.1628 0.7106 -0.6846
vn -0.5458 0.4485 -0.7077
vn -0.4400 0.4158 -0.7960
vn -0.1072 0.6918 -0.7140
vn 0.4114 -0.0681 -0.9089
vn 0.3342 -0.7281 -0.5985
vn 0.2657 0.4622 -0.8460
vn 0.8962 -0.1165 -0.4280
vn 0.5780 -0.7792 -0.2423
vn 0.9649 -0.2202 -0.1429
vn 0.5587 -0.8269 -0.0643
vn 0.9057 -0.0136 -0.4238
vn 0.9832 -0.0177 -0.1814
vn 0.9017 0.0890 -0.4230
vn 0.9962 0.0272 -0.0825
vn 0.8130 0.2446 -0.5284
vn 0.9626 0.1511 -0.2250
vn 0.4719 0.7635 -0.4408
vn 0.7231 0.6474 -0.2408
vn 0.9620 -0.2729 0.0088
vn 0.4864 -0.8736 0.0139
vn 0.3300 0.9082 -0.2573
vn 0.9478 0.3152 -0.0480
vn 0.0791 0.9943 -0.0721
vn 0.6797 0.7333 0.0144
vn 0.4184 0.8977 0.1380
vn 0.8769 0.4172 0.2388
vn 0.3168 0.9227 0.2199
vn 0.5918 0.4355 0.6783
vn 0.7095 0.1810 0.6810
vn 0.8988 0.2030 0.3886
vn 0.6507 -0.2727 0.7087
vn 0.8947 -0.2851 0.3438
vn 0.3948 -0.8516 0.3449
vn 0.4902 -0.8612 0.1340
vn 0.1675 0.9226 0.3475
vn 0.4091 0.4205 0.8098
vn 0.0298 0.9620 0.2714
vn 0.1367 0.4019 0.9054
vn 0.3042 -0.8102 0.5011
vn 0.4909 -0.1842 0.8515
vn 0.3803 -0.2021 0.9025
vn 0.1662 -0.7950 0.5835
vn 0.1056 -0.2807 0.9540
vn 0.0656 -0.8978 0.4354
vn -0.0164 -0.7766 0.6298
vn -0.0637 -0.1395 0.9882
vn -0.0790 0.5907 0.8030
vn -0.0644 0.9801 0.1876
vn 0.3588 0.5836 -0.7285
vn 0.3953 0.5445 -0.7397
vn -0.0085 -1.0000 -0.0013
# 93 vertex normals

vt 0.4081 0.1667 0.0000
vt 0.4327 0.1696 0.0000
vt 0.4097 0.2026 0.0000
vt 0.4025 0.1997 0.0000
vt 0.3013 0.3810 0.0000
vt 0.2885 0.3710 0.0000
vt 0.2565 0.4917 0.0000
vt 0.2333 0.4765 0.0000
vt 0.2370 0.5139 0.0000
vt 0.2118 0.4963 0.0000
vt 0.6879 0.9382 0.0000
vt 0.6929 0.9817 0.0000
vt 0.6663 0.9920 0.0000
vt 0.6806 0.9383 0.0000
vt 0.6695 0.8375 0.0000
vt 0.6880 0.8319 0.0000
vt 0.6831 0.8003 0.0000
vt 0.6427 0.8160 0.0000
vt 0.6507 0.7289 0.0000
vt 0.6759 0.7607 0.0000
vt 0.6916 0.7266 0.0000
vt 0.4774 0.8089 0.0000
vt 0.5052 0.7975 0.0000
vt 0.5380 0.8136 0.0000
vt 0.5069 0.8234 0.0000
vt 0.5289 0.9122 0.0000
vt 0.5138 0.9125 0.0000
vt 0.5477 0.9941 0.0000
vt 0.5135 0.7270 0.0000
vt 0.4885 0.7235 0.0000
vt 0.8710 0.7984 0.0000
vt 0.8236 0.8243 0.0000
vt 0.7874 0.7885 0.0000
vt 0.8395 0.7395 0.0000
vt 0.7113 0.7568 0.0000
vt 0.7227 0.7388 0.0000
vt 0.8880 0.5459 0.0000
vt 0.8635 0.7338 0.0000
vt 0.7790 0.7252 0.0000
vt 0.8243 0.5661 0.0000
vt 0.6352 0.5142 0.0000
vt 0.6564 0.4836 0.0000
vt 0.8064 0.5152 0.0000
vt 0.8170 0.0225 0.0000
vt 0.8140 0.0011 0.0000
vt 0.8934 0.0000 0.0000
vt 0.8857 0.0199 0.0000
vt 0.8642 0.0346 0.0000
vt 0.8557 0.0350 0.0000
vt 0.8616 0.1985 0.0000
vt 0.8220 0.1924 0.0000
vt 0.3734 0.0375 0.0000
vt 0.4055 0.0614 0.0000
vt 0.3907 0.0617 0.0000
vt 0.3715 0.0436 0.0000
vt 0.4134 0.1377 0.0000
vt 0.4243 0.1401 0.0000
vt 0.4119 0.0931 0.0000
vt 0.4044 0.0927 0.0000
vt 0.8089 0.9769 0.0000
vt 0.7811 0.9710 0.0000
vt 0.7382 0.9492 0.0000
vt 0.7114 0.9318 0.0000
vt 0.6886 0.7695 0.0000
vt 0.7137 0.0187 0.0000
vt 0.7139 0.0001 0.0000
vt 0.2935 -0.0000 0.0000
vt 0.7332 0.1924 0.0000
vt 0.7643 0.2483 0.0000
vt 0.7649 0.2251 0.0000
vt 0.8889 0.2231 0.0000
vt 0.8945 0.2410 0.0000
vt 0.7039 0.2427 0.0000
vt 0.7038 0.2247 0.0000
vt 0.7499 0.3094 0.0000
vt 0.7263 0.3093 0.0000
vt 0.7519 0.3520 0.0000
vt 0.7285 0.3534 0.0000
vt 0.7612 0.4117 0.0000
vt 0.7138 0.4137 0.0000
vt 0.7837 0.4683 0.0000
vt 0.6588 0.4756 0.0000
vt 0.8861 0.4160 0.0000
vt 0.6680 0.4172 0.0000
vt 0.6487 0.4757 0.0000
vt 0.6445 0.3077 0.0000
vt 0.6663 0.3733 0.0000
vt 0.5549 0.3116 0.0000
vt 0.5540 0.2864 0.0000
vt 0.6427 0.2898 0.0000
vt 0.5854 0.5303 0.0000
vt 0.1027 0.1415 0.0000
vt 0.0921 0.1837 0.0000
vt 0.0703 0.1749 0.0000
vt 0.5409 0.5321 0.0000
vt 0.0569 0.2650 0.0000
vt 0.0505 0.2627 0.0000
vt 0.0420 0.3165 0.0000
vt 0.0305 0.3127 0.0000
vt 0.0539 0.3760 0.0000
vt 0.0361 0.3902 0.0000
vt 0.0019 0.3660 0.0000
vt 0.0000 0.3480 0.0000
vt 0.9821 0.9221 0.0000
vt 0.9763 0.7095 0.0000
vt 0.9978 0.7095 0.0000
vt 1.0000 0.9221 0.0000
vt 0.9754 0.6866 0.0000
vt 0.9941 0.6841 0.0000
vt 0.3679 0.3078 0.0000
vt 0.3746 0.2837 0.0000
vt 0.4027 0.5506 0.0000
vt 0.3676 0.5205 0.0000
vt 0.4547 0.5560 0.0000
vt 0.0742 0.4128 0.0000
vt 0.0592 0.4274 0.0000
vt 0.0996 0.4285 0.0000
vt 0.0808 0.4515 0.0000
vt 0.9344 0.6891 0.0000
vt 0.9360 0.7094 0.0000
vt 0.8986 0.7113 0.0000
vt 0.8983 0.6877 0.0000
vt 0.9513 0.9503 0.0000
vt 0.9095 0.9526 0.0000
vt 0.8821 0.7105 0.0000
vt 0.8794 0.6818 0.0000
vt 0.8784 0.9497 0.0000
vt 0.6471 0.2536 0.0000
vt 0.6274 0.2816 0.0000
vt 0.6014 0.2699 0.0000
vt 0.6223 0.2432 0.0000
vt 0.6562 0.0914 0.0000
vt 0.6831 0.1082 0.0000
vt 0.7141 0.1331 0.0000
vt 0.7216 0.1699 0.0000
vt 0.5802 0.0181 0.0000
vt 0.5108 0.0029 0.0000
vt 0.5402 0.0000 0.0000
vt 0.1800 0.4838 0.0000
vt 0.1855 0.4752 0.0000
vt 0.4841 0.0224 0.0000
vt 0.4261 0.1079 0.0000
vt 0.8542 0.4336 0.0000
vt 0.8111 0.4539 0.0000
vt 0.2631 0.0196 0.0000
vt 0.2210 0.0406 0.0000
vt 0.1956 0.0577 0.0000
vt 0.6709 0.7171 0.0000
vt 0.5824 0.7156 0.0000
vt 0.4301 0.9044 0.0000
vt 0.4101 0.9352 0.0000
vt 0.2797 0.7902 0.0000
vt 0.2941 0.9744 0.0000
vt 0.2720 0.9700 0.0000
vt 0.1070 0.9256 0.0000
vt 0.0257 0.8588 0.0000
vt 0.0152 0.7884 0.0000
vt 0.0237 0.6987 0.0000
vt 0.1200 0.6435 0.0000
vt 0.1744 0.6399 0.0000
vt 0.2538 0.6460 0.0000
vt 0.4100 0.6870 0.0000
vt 0.4238 0.6963 0.0000
vt 0.4416 0.7275 0.0000
vt 0.4528 0.7572 0.0000
vt 0.4495 0.7746 0.0000
vt 0.4508 0.8056 0.0000
# 167 texture coords

o Box001
g Box001
usemtl wire_154154229
s 4
f 1/1/1 2/2/2 3/3/3 4/4/4 
s 8
f 5/5/5 6/6/6 4/4/4 3/3/3 
f 7/7/7 8/8/8 6/6/6 5/5/5 
s 4
f 9/9/9 10/10/10 8/8/8 7/7/7 
s 8
f 11/11/11 9/12/9 7/13/7 12/14/12 
s 16
f 12/14/12 13/15/13 14/16/14 11/11/11 
f 15/17/15 14/16/14 13/15/13 16/18/16 
s 4
f 17/19/17 18/20/18 15/17/15 16/18/16 
f 19/21/19 18/20/18 17/19/17 
s off
f 20/22/20 21/23/21 22/24/22 23/25/23 
s 2
f 23/25/23 24/26/24 25/27/25 20/22/20 
f 5/28/5 25/27/25 24/26/24 
s 16
f 26/29/26 21/23/21 20/22/20 27/30/27 
s 1
f 13/15/13 12/14/12 7/13/7 5/28/5 
s 2
f 5/28/5 24/26/24 16/18/16 13/15/13 
s 1
f 21/23/21 26/29/26 17/19/17 16/18/16 
f 22/24/22 21/23/21 16/18/16 
s 2
f 22/24/22 16/18/16 24/26/24 23/25/23 
f 28/31/28 29/32/29 30/33/30 31/34/31 
f 30/33/30 32/35/32 33/36/33 31/34/31 
s 8
f 31/37/31 27/38/27 20/39/20 28/40/28 
s 64
f 28/40/28 3/41/3 2/42/2 29/43/29 
s 4
f 34/44/34 35/45/35 33/46/33 32/47/32 
f 34/44/34 32/47/32 36/48/36 37/49/37 
s 32
f 37/49/37 36/48/36 38/50/38 39/51/39 
s 16
f 39/52/39 38/53/38 40/54/40 41/55/41 
s 4
f 42/56/42 43/57/43 2/2/2 1/1/1 
s 8
f 38/53/38 44/58/44 45/59/45 40/54/40 
f 43/57/43 42/56/42 45/59/45 44/58/44 
s 1
f 2/60/2 43/61/43 30/33/30 29/32/29 
f 43/61/43 44/62/44 32/35/32 30/33/30 
f 32/35/32 44/62/44 38/63/38 36/64/36 
s 8
f 46/65/46 47/66/47 35/45/35 34/44/34 
s 16
f 41/55/41 48/67/48 39/52/39 
s 32
f 39/51/39 48/68/48 46/65/46 34/44/34 
f 37/49/37 39/51/39 34/44/34 
s 16
f 49/69/49 50/70/50 47/71/47 46/72/46 
f 51/73/51 52/74/52 50/70/50 49/69/49 
s 8
f 51/73/51 49/69/49 53/75/53 54/76/54 
f 55/77/55 56/78/56 54/76/54 53/75/53 
f 55/77/55 57/79/57 58/80/58 56/78/56 
s 4
f 58/80/58 57/79/57 59/81/59 60/82/60 
s 2
f 57/79/57 55/77/55 48/83/48 
f 46/72/46 53/75/53 49/69/49 
f 46/72/46 55/77/55 53/75/53 
f 55/77/55 46/72/46 48/83/48 
s 32
f 56/84/56 58/85/58 51/86/51 54/87/54 
s 16
f 61/88/61 62/89/62 52/90/52 51/86/51 
s 32
f 61/88/61 51/86/51 58/85/58 60/91/60 
s 16
f 60/92/60 63/93/63 64/94/64 
s 32
f 61/88/61 60/91/60 64/95/64 
s 16
f 65/96/65 66/97/66 64/94/64 63/93/63 
s 8
f 67/98/67 68/99/68 66/97/66 65/96/65 
s 4
f 68/99/68 67/98/67 69/100/69 70/101/70 
f 70/101/70 71/102/71 72/103/72 68/99/68 
s 8
f 71/104/71 73/105/73 74/106/74 72/107/72 
s 16
f 75/108/75 76/109/76 74/106/74 73/105/73 
s 8
f 62/89/62 61/88/61 74/110/74 76/111/76 
s 1
f 68/112/68 72/113/72 64/95/64 66/114/66 
f 72/113/72 74/110/74 61/88/61 64/95/64 
s 8
f 69/100/69 77/115/77 78/116/78 70/101/70 
f 79/117/79 80/118/80 78/116/78 77/115/77 
f 81/119/81 75/108/75 73/105/73 82/120/82 
f 83/121/83 84/122/84 81/119/81 82/120/82 
s 2
f 82/120/82 73/105/73 71/104/71 70/123/70 
f 83/121/83 82/120/82 70/123/70 78/124/78 
s 8
f 84/122/84 83/121/83 85/125/85 86/126/86 
s 2
f 85/125/85 83/121/83 78/124/78 80/127/80 
s 16
f 87/128/87 86/129/86 85/130/85 88/131/88 
s 8
f 87/128/87 88/131/88 14/132/14 15/133/15 
f 87/128/87 15/133/15 18/134/18 19/135/19 
s 1
f 11/136/11 14/132/14 10/137/10 9/138/9 
s 16
f 89/139/89 90/140/90 8/8/8 10/10/10 
f 89/139/89 80/118/80 79/117/79 90/140/90 
s 1
f 89/141/89 10/137/10 14/132/14 88/131/88 
f 80/142/80 89/141/89 88/131/88 85/130/85 
s 4
f 91/143/91 57/79/57 48/83/48 
f 91/143/91 92/144/92 57/79/57 
s 1
f 91/145/91 48/67/48 41/55/41 40/54/40 
s 4
f 92/144/92 59/81/59 57/79/57 
s 1
f 92/146/92 91/145/91 40/54/40 45/59/45 
f 59/147/59 92/146/92 45/59/45 42/56/42 
f 59/147/59 42/56/42 1/1/1 
s 2
f 60/92/60 59/147/59 4/4/4 6/6/6 
f 4/4/4 59/147/59 1/1/1 
s 1
f 63/93/63 60/92/60 6/6/6 
s 2
f 65/96/65 63/93/63 6/6/6 8/8/8 
f 8/8/8 90/140/90 67/98/67 65/96/65 
f 90/140/90 79/117/79 69/100/69 67/98/67 
f 69/100/69 79/117/79 77/115/77 
s 64
f 3/41/3 28/40/28 25/148/25 5/149/5 
f 25/148/25 28/40/28 20/39/20 
s 128
f 19/150/19 17/151/17 93/152/93 
f 17/151/17 26/153/26 93/152/93 
f 26/153/26 27/154/27 93/152/93 
f 27/154/27 31/155/31 93/152/93 
f 31/155/31 33/156/33 93/152/93 
f 33/156/33 35/157/35 93/152/93 
f 35/157/35 47/158/47 93/152/93 
f 47/158/47 50/159/50 93/152/93 
f 50/159/50 52/160/52 93/152/93 
f 52/160/52 62/161/62 93/152/93 
f 62/161/62 76/162/76 93/152/93 
f 76/162/76 75/163/75 93/152/93 
f 75/163/75 81/164/81 93/152/93 
f 81/164/81 84/165/84 93/152/93 
f 84/165/84 86/166/86 93/152/93 
f 86/166/86 87/167/87 93/152/93 
f 87/167/87 19/150/19 93/152/93 
# 73 polygons - 36 triangles

