# 3ds Max Wavefront OBJ Exporter v0.99 - (c)2007 guruware
# File Created: 14.07.2023 22:40:29

mtllib Rock0301S02_Low.mtl

#
# object Small_Low2
#

v  -0.4224 -0.6099 -1.8505
v  -0.3590 -0.7983 -1.6338
v  0.0831 -0.6666 -1.7041
v  0.0834 -0.6015 -1.7696
v  -0.5787 -0.7187 -1.7782
v  -0.6874 -1.0504 -1.5682
v  -0.7872 -1.4696 -1.7147
v  -0.6158 -1.5315 -1.5520
v  -0.5573 -1.4550 -1.4857
v  -0.5528 -0.7018 -2.6605
v  -0.4472 -0.5992 -2.7350
v  -0.3024 -0.6092 -2.9980
v  -0.6165 -0.9562 -2.8080
v  -0.4663 -1.6551 -2.9964
v  -0.7427 -1.4740 -2.7560
v  -0.7972 -1.5695 -2.5732
v  -0.7391 -1.6665 -2.6042
v  -0.5241 -1.6805 -1.6691
v  -0.3949 -1.4853 -1.4750
v  0.4948 -1.6603 -1.6499
v  0.5494 -1.5194 -1.5525
v  0.6103 -1.6768 -1.6921
v  0.6590 -1.4748 -1.5921
v  0.7866 -1.6611 -1.8580
v  0.7834 -1.4753 -1.7329
v  0.6611 -1.0043 -1.8442
v  0.5455 -1.1155 -1.6447
v  0.3703 -0.6055 -1.9667
v  0.3607 -0.8905 -1.6964
v  0.5393 -0.6361 -2.2304
v  -0.6442 -0.8829 -1.6180
v  0.2549 -0.8981 -1.6859
v  0.3699 -1.0963 -1.6350
v  -0.3281 -0.9399 -1.6276
v  -0.2938 -1.1022 -1.5579
v  0.5843 -1.6481 -2.9965
v  0.5820 -0.5931 -2.9915
# 37 vertices

vn -0.2660 0.9157 0.3013
vn -0.2408 0.2973 0.9239
vn 0.2049 0.5048 0.8386
vn 0.1198 0.8933 0.4332
vn -0.6415 0.6976 0.3191
vn -0.6828 0.2740 0.6773
vn -0.9148 -0.2807 0.2905
vn -0.4913 -0.4984 0.7143
vn -0.3221 -0.1681 0.9317
vn -0.8497 0.4997 -0.1681
vn -0.4747 0.8584 -0.1943
vn -0.2740 0.6622 -0.6974
vn -0.8460 0.2202 -0.4856
vn -0.3065 -0.6151 -0.7264
vn -0.8837 -0.0474 -0.4657
vn -0.9877 -0.0956 -0.1238
vn -0.5861 -0.7859 -0.1972
vn -0.2592 -0.8956 0.3617
vn -0.0124 -0.2875 0.9577
vn 0.0549 -0.7627 0.6444
vn 0.2749 -0.2477 0.9290
vn 0.1687 -0.9325 0.3194
vn 0.5783 -0.0576 0.8138
vn 0.7900 -0.6067 0.0882
vn 0.9439 0.0298 0.3289
vn 0.8416 0.4305 0.3262
vn 0.4187 0.3499 0.8380
vn 0.3727 0.8768 0.3039
vn 0.2408 0.5321 0.8117
vn 0.6363 0.7664 0.0881
vn -0.5668 0.5270 0.6333
vn 0.0817 0.2163 0.9729
vn 0.0952 0.2654 0.9594
vn 0.0802 0.2521 0.9644
vn 0.0676 0.2966 0.9526
vn 0.5226 -0.5792 -0.6256
vn 0.5881 0.5994 -0.5430
# 37 vertex normals

vt 0.6279 0.5050 0.0000
vt 0.6506 0.4396 0.0000
vt 0.7517 0.4907 0.0000
vt 0.7465 0.5119 0.0000
vt 0.5903 0.4748 0.0000
vt 0.1404 0.8715 0.0000
vt 0.1050 0.7603 0.0000
vt 0.1632 0.7572 0.0000
vt 0.1782 0.7782 0.0000
vt 0.5469 0.6827 0.0000
vt 0.5770 0.7087 0.0000
vt 0.6271 0.4335 0.0000
vt 0.5667 0.3304 0.0000
vt 0.6363 0.3269 0.0000
vt 0.6537 0.3639 0.0000
vt 0.3894 0.3388 0.0000
vt 0.4586 0.2690 0.0000
vt 0.4512 0.2208 0.0000
vt 0.4230 0.2214 0.0000
vt 0.1773 0.7071 0.0000
vt 0.4787 0.0006 0.0000
vt 0.5483 0.0430 0.0000
vt 0.2136 0.7706 0.0000
vt 0.4229 0.7144 0.0000
vt 0.4301 0.7559 0.0000
vt 0.4562 0.7122 0.0000
vt 0.4561 0.7656 0.0000
vt 0.5155 0.7129 0.0000
vt 0.5002 0.7651 0.0000
vt 0.4827 0.8904 0.0000
vt 0.4363 0.8525 0.0000
vt 0.8056 0.5690 0.0000
vt 0.4242 1.0000 0.0000
vt 0.3979 0.9109 0.0000
vt 0.2789 0.5863 0.0000
vt 0.2067 0.5680 0.0000
vt 0.2570 0.4585 0.0000
vt 0.6924 0.0768 0.0000
vt 0.7154 0.1293 0.0000
vt 0.3718 0.9105 0.0000
vt 0.3954 0.8608 0.0000
vt 0.1522 0.9143 0.0000
vt 0.2294 0.9040 0.0000
vt 0.2220 0.9373 0.0000
vt 0.1646 0.9703 0.0000
vt 0.6583 0.0497 0.0000
vt 0.2367 0.8620 0.0000
vt 0.3021 0.3492 0.0000
vt 0.3522 0.3318 0.0000
vt 0.8319 0.6388 0.0000
vt 0.5980 0.7767 0.0000
vt 0.5674 0.5011 0.0000
vt 0.4182 0.7016 0.0000
vt 0.9996 0.3347 0.0000
vt 0.8312 0.5203 0.0000
vt 0.6540 0.4085 0.0000
vt 0.7908 0.1994 0.0000
vt 0.8041 0.8181 0.0000
vt 0.3883 0.2844 0.0000
vt 0.1683 0.4006 0.0000
vt -0.0000 0.1846 0.0000
vt 0.0186 0.1302 0.0000
vt 0.0378 0.1079 0.0000
vt 0.2537 -0.0000 0.0000
vt 0.4021 0.1721 0.0000
vt 0.3334 0.9676 0.0000
# 66 texture coords

o Small_Low2
g Small_Low2
usemtl wire_140088225
s 1
f 1/1/1 2/2/2 3/3/3 4/4/4 
f 5/5/5 2/2/2 1/1/1 
f 6/6/6 7/7/7 8/8/8 9/9/9 
f 10/10/10 5/5/5 1/1/1 11/11/11 
f 12/12/12 13/13/13 10/14/10 11/15/11 
f 14/16/14 15/17/15 13/13/13 12/12/12 
f 16/18/16 15/17/15 14/16/14 17/19/17 
f 18/20/18 8/8/8 7/7/7 
f 16/18/16 17/19/17 18/21/18 7/22/7 
f 19/23/19 9/9/9 8/8/8 18/20/18 
f 20/24/20 21/25/21 19/23/19 18/20/18 
f 22/26/22 23/27/23 21/25/21 20/24/20 
f 22/26/22 24/28/24 25/29/25 23/27/23 
f 23/27/23 25/29/25 26/30/26 27/31/27 
f 4/4/4 3/3/3 28/32/28 
f 28/33/28 29/34/29 27/31/27 26/30/26 
f 30/35/30 28/36/28 26/37/26 
f 31/38/31 5/39/5 10/14/10 13/13/13 
f 29/34/29 32/40/32 33/41/33 27/31/27 
f 31/42/31 34/43/34 2/44/2 5/45/5 
f 6/46/6 15/17/15 16/18/16 7/22/7 
f 31/38/31 13/13/13 15/17/15 6/46/6 
f 35/47/35 6/6/6 9/9/9 19/23/19 
f 34/43/34 31/42/31 6/6/6 35/47/35 
f 23/27/23 27/31/27 33/41/33 21/25/21 
f 21/25/21 33/41/33 35/47/35 19/23/19 
f 26/37/26 25/48/25 24/49/24 30/35/30 
f 11/11/11 1/1/1 4/4/4 28/32/28 
f 11/11/11 28/32/28 30/50/30 12/51/12 
f 30/35/30 24/49/24 36/52/36 37/53/37 
f 14/54/14 12/55/12 37/56/37 36/57/36 
f 30/50/30 37/58/37 12/51/12 
f 14/59/14 36/60/36 24/61/24 22/62/22 20/63/20 18/64/18 17/65/17 
f 32/40/32 34/43/34 35/47/35 33/41/33 
f 3/66/3 2/44/2 34/43/34 32/40/32 
f 3/66/3 32/40/32 29/34/29 28/33/28 
# 31 polygons - 5 triangles

