# 3ds Max Wavefront OBJ Exporter v0.99 - (c)2007 guruware
# File Created: 13.08.2023 03:54:29

mtllib BRock03_L.mtl

#
# object Box004
#

v  0.3826 1.1488 -0.7734
v  0.3287 1.0041 -0.9674
v  0.1701 0.8618 -1.0208
v  0.2035 1.0553 -0.7521
v  -0.8728 0.5284 -0.8819
v  -0.7524 0.6436 -0.6076
v  -0.7058 0.5452 -0.9766
v  -0.8068 0.4388 -1.0106
v  -0.7750 0.1556 -1.0866
v  -0.8902 0.1562 -1.0314
v  -0.9325 0.2394 -1.0171
v  -0.8597 0.2811 -1.0779
v  -0.7247 0.2060 -1.1421
v  -0.1898 0.6544 -1.0509
v  -0.1860 0.8690 -0.7217
v  -0.1838 0.2333 -1.2865
v  0.2203 0.2043 -1.3849
v  0.3884 0.2037 -1.3608
v  0.4908 1.1619 -0.7314
v  0.5437 1.0146 -0.9478
v  0.6954 0.2625 -1.2820
v  1.2133 0.2160 -0.7452
v  1.1818 0.1557 -0.7295
v  0.7984 0.1530 -1.1898
v  0.8338 0.2306 -1.1908
v  0.6434 0.1608 -1.2770
v  0.3877 0.1605 -1.3615
v  0.2170 0.1536 -1.3556
v  -0.1928 0.1551 -1.2583
v  1.3592 0.3087 -0.5426
v  1.3725 0.1530 -0.4730
v  0.5785 1.1728 -0.6821
v  0.6354 1.0990 -0.7714
v  0.9610 1.1881 -0.5101
v  0.9257 1.2329 -0.4667
v  1.0697 1.2720 -0.2401
v  1.1403 1.1350 -0.3511
v  1.4032 0.4142 -0.3739
v  1.4655 0.2177 -0.2239
v  1.4303 0.1583 -0.2236
v  0.9304 1.2609 0.3463
v  1.4182 0.1915 0.3584
v  1.4282 0.1534 0.3617
v  1.0098 1.0260 0.4855
v  0.8132 1.3027 0.5098
v  1.4252 0.1579 0.4699
v  0.7306 1.3582 0.5973
v  0.4947 1.4846 0.6631
v  0.5565 1.2785 0.7825
v  0.6780 1.2553 0.7333
v  0.7329 0.3662 1.2270
v  0.8231 0.3579 1.1935
v  0.6689 0.2629 1.3016
v  0.9178 0.2500 1.1700
v  0.7922 0.1616 1.2344
v  0.8560 0.1659 1.1960
v  1.3231 0.1604 0.6532
v  1.2464 0.2218 0.7747
v  0.4661 1.4395 0.7252
v  0.2213 1.6535 0.6774
v  0.2109 1.6108 0.7395
v  0.3434 0.2785 1.3512
v  -0.0697 1.6645 0.6989
v  -0.0859 1.5887 0.8031
v  0.0739 1.6837 0.6427
v  0.0303 0.2757 1.3900
v  0.3475 0.1530 1.3215
v  0.0211 0.1647 1.3688
v  -0.9169 1.3891 0.7610
v  -0.9423 1.3357 0.8617
v  -0.9262 0.2159 1.2868
v  -1.0221 1.2991 0.7974
v  -0.9905 1.3395 0.7400
v  -1.2291 1.0555 0.4703
v  -1.1883 1.0886 0.3850
v  -1.2460 0.8576 0.1066
v  -1.3487 0.7525 0.2843
v  -1.4566 0.3733 0.4211
v  -1.4399 0.3962 0.5584
v  -1.0531 0.2168 1.1771
v  -1.2108 0.1960 0.9815
v  -1.0112 0.1542 1.1413
v  -0.9056 0.1624 1.2698
v  -1.1965 0.1569 0.9722
v  -1.4159 0.2452 0.7008
v  -1.4053 0.1570 0.6825
v  -1.4692 0.2762 0.3728
v  -1.4246 0.1503 0.4964
v  -1.4710 0.2330 0.2681
v  -1.4408 0.1538 0.3532
v  -1.2995 0.1458 -0.3439
v  -1.3524 0.2549 -0.3495
v  -1.1594 0.2472 -0.6973
v  -1.1279 0.1510 -0.6704
v  -1.1942 0.4489 -0.4637
v  -1.0335 0.4886 -0.6728
v  0.2009 1.4171 0.1388
v  0.3115 1.2692 -0.3799
v  -0.2381 0.9903 -0.3856
v  -0.3298 1.1859 0.1316
v  -0.8280 0.8286 -0.1985
v  -0.9176 1.0617 0.2486
v  0.0393 0.1566 0.0880
# 103 vertices

vn -0.1558 0.8686 -0.4704
vn -0.2175 0.6839 -0.6964
vn -0.2912 0.6255 -0.7238
vn -0.4381 0.7947 -0.4202
vn -0.5387 0.7134 -0.4481
vn -0.4198 0.8429 -0.3367
vn -0.2772 0.7367 -0.6167
vn -0.3861 0.5014 -0.7743
vn -0.2751 -0.8136 -0.5122
vn -0.4182 -0.7083 -0.5687
vn -0.7558 0.0422 -0.6535
vn -0.5283 0.1944 -0.8265
vn -0.3036 -0.1458 -0.9416
vn -0.2651 0.6353 -0.7253
vn -0.4120 0.8010 -0.4343
vn -0.2433 0.1071 -0.9640
vn -0.0397 -0.0169 -0.9991
vn 0.1729 0.2201 -0.9600
vn 0.0270 0.9546 -0.2966
vn 0.3401 0.6088 -0.7168
vn 0.4127 0.1337 -0.9010
vn 0.8021 -0.1412 -0.5802
vn 0.3987 -0.8605 -0.3171
vn 0.3760 -0.7709 -0.5142
vn 0.6755 0.0628 -0.7347
vn 0.2324 -0.7616 -0.6049
vn 0.1164 -0.6599 -0.7423
vn -0.0574 -0.8536 -0.5178
vn -0.1570 -0.8023 -0.5760
vn 0.8646 0.1076 -0.4907
vn 0.6277 -0.7212 -0.2932
vn 0.1160 0.8988 -0.4228
vn 0.3833 0.6845 -0.6201
vn 0.5161 0.6004 -0.6109
vn 0.2226 0.8923 -0.3927
vn 0.5746 0.8171 -0.0464
vn 0.8456 0.4586 -0.2734
vn 0.9413 0.2701 -0.2026
vn 0.9927 -0.1008 -0.0657
vn 0.5225 -0.8509 -0.0553
vn 0.6261 0.7569 0.1872
vn 0.9360 0.3449 0.0702
vn 0.7865 -0.6171 0.0251
vn 0.8092 0.4356 0.3941
vn 0.5938 0.7896 0.1545
vn 0.8348 -0.4908 0.2494
vn 0.6225 0.7454 0.2385
vn 0.5215 0.8244 0.2201
vn 0.3645 0.4923 0.7904
vn 0.5346 0.5153 0.6698
vn 0.3089 0.4408 0.8428
vn 0.5016 0.3329 0.7985
vn 0.2483 0.0216 0.9684
vn 0.6878 0.0864 0.7208
vn 0.3521 -0.6881 0.6345
vn 0.4196 -0.7310 0.5381
vn 0.6462 -0.6563 0.3896
vn 0.8164 0.0787 0.5721
vn 0.4437 0.5295 0.7230
vn 0.3521 0.9259 0.1369
vn 0.2593 0.6461 0.7179
vn 0.1383 0.1111 0.9841
vn -0.1947 0.9779 0.0762
vn -0.0192 0.6406 0.7676
vn -0.0110 0.9962 -0.0867
vn 0.0094 0.1171 0.9931
vn 0.1001 -0.7820 0.6152
vn -0.0028 -0.7412 0.6712
vn -0.4070 0.9123 -0.0448
vn -0.4077 0.5987 0.6894
vn -0.4023 -0.0500 0.9141
vn -0.7723 0.5071 0.3827
vn -0.6166 0.7851 -0.0592
vn -0.8771 0.4712 0.0932
vn -0.5591 0.7394 -0.3751
vn -0.6753 0.5955 -0.4352
vn -0.9325 0.3461 -0.1033
vn -0.9816 0.1905 0.0155
vn -0.9454 0.2017 0.2560
vn -0.6925 -0.2105 0.6900
vn -0.7947 -0.0634 0.6036
vn -0.2725 -0.9195 0.2834
vn -0.2565 -0.7759 0.5763
vn -0.4300 -0.8187 0.3806
vn -0.8886 0.0863 0.4505
vn -0.6553 -0.7154 0.2422
vn -0.9974 -0.0289 0.0654
vn -0.6042 -0.7935 0.0728
vn -0.9837 -0.1321 -0.1221
vn -0.6189 -0.7853 0.0155
vn -0.5282 -0.8264 -0.1952
vn -0.9344 -0.0138 -0.3561
vn -0.8467 0.0280 -0.5314
vn -0.4793 -0.8271 -0.2937
vn -0.7043 0.5205 -0.4827
vn -0.6283 0.6944 -0.3509
vn -0.0209 0.9322 -0.3614
vn -0.2019 0.9280 -0.3132
vn -0.3853 0.8434 -0.3744
vn -0.3052 0.8374 -0.4534
vn -0.3195 0.8285 -0.4598
vn -0.2170 0.8376 -0.5014
vn 0.0017 -1.0000 0.0025
# 103 vertex normals

vt 0.3280 0.7952 0.0000
vt 0.3142 0.8392 0.0000
vt 0.2809 0.8567 0.0000
vt 0.2920 0.7959 0.0000
vt 0.0758 0.8438 0.0000
vt 0.1019 0.7881 0.0000
vt 0.1077 0.8613 0.0000
vt 0.5623 0.8503 0.0000
vt 0.5696 0.8786 0.0000
vt 0.5463 0.8787 0.0000
vt 0.4924 0.8964 0.0000
vt 0.4896 0.8787 0.0000
vt 0.5046 0.8728 0.0000
vt 0.5143 0.8885 0.0000
vt 0.7727 0.9497 0.0000
vt 0.7597 0.9575 0.0000
vt 0.7462 0.9313 0.0000
vt 0.2080 0.8725 0.0000
vt 0.2141 0.7991 0.0000
vt 0.7573 0.9007 0.0000
vt 0.7776 0.8816 0.0000
vt 0.8813 0.8725 0.0000
vt 0.8819 0.9582 0.0000
vt 0.9533 0.8393 0.0000
vt 0.9620 0.9739 0.0000
vt 0.9847 0.8141 0.0000
vt 0.9929 0.9771 0.0000
vt 0.3490 0.7879 0.0000
vt 0.3555 0.8371 0.0000
vt 0.9373 0.0380 0.0000
vt 0.9910 0.0296 0.0000
vt 0.9361 0.1872 0.0000
vt 0.9038 0.1871 0.0000
vt 0.7903 0.0229 0.0000
vt 0.7929 0.0106 0.0000
vt 0.9110 0.0151 0.0000
vt 0.9056 0.0308 0.0000
vt 0.9446 0.0184 0.0000
vt 0.9916 0.0211 0.0000
vt 0.9918 0.9855 0.0000
vt 0.9590 0.9832 0.0000
vt 0.8772 0.9727 0.0000
vt 0.7407 0.0386 0.0000
vt 0.7303 0.0075 0.0000
vt 0.3661 0.7792 0.0000
vt 0.3752 0.8007 0.0000
vt 0.8654 0.2030 0.0000
vt 0.7828 0.2167 0.0000
vt 0.4398 0.7512 0.0000
vt 0.4342 0.7400 0.0000
vt 0.4631 0.6982 0.0000
vt 0.4734 0.7281 0.0000
vt 0.7097 0.0585 0.0000
vt 0.7361 0.2034 0.0000
vt 0.6815 0.0187 0.0000
vt 0.6868 0.0073 0.0000
vt 0.9807 0.7846 0.0000
vt 0.9417 0.8111 0.0000
vt 0.7960 0.8039 0.0000
vt 0.7671 0.7821 0.0000
vt 0.7615 0.6684 0.0000
vt 0.9826 0.6770 0.0000
vt 0.9901 0.6764 0.0000
vt 0.9898 0.7812 0.0000
vt 0.8085 0.6441 0.0000
vt 0.7477 0.6325 0.0000
vt 0.9890 0.6569 0.0000
vt 0.7612 0.5487 0.0000
vt 0.7102 0.5387 0.0000
vt 0.7419 0.5046 0.0000
vt 0.7638 0.5170 0.0000
vt 0.8665 0.3521 0.0000
vt 0.8818 0.3623 0.0000
vt 0.8672 0.3248 0.0000
vt 0.9083 0.3580 0.0000
vt 0.8975 0.3280 0.0000
vt 0.9072 0.3380 0.0000
vt 0.9576 0.4915 0.0000
vt 0.9831 0.6178 0.0000
vt 0.9678 0.5924 0.0000
vt 0.9454 0.5016 0.0000
vt 0.7105 0.5241 0.0000
vt 0.7331 0.6127 0.0000
vt 0.7492 0.5832 0.0000
vt 0.9207 0.4935 0.0000
vt 0.6487 0.5359 0.0000
vt 0.6516 0.5233 0.0000
vt 0.8133 0.2922 0.0000
vt 0.6008 0.5084 0.0000
vt 0.6063 0.4868 0.0000
vt 0.3119 0.4996 0.0000
vt 0.2843 0.5023 0.0000
vt 0.2567 0.4921 0.0000
vt 0.7634 0.2592 0.0000
vt 0.8271 0.2775 0.0000
vt 0.7735 0.2445 0.0000
vt 0.4937 0.3848 0.0000
vt 0.4954 0.3659 0.0000
vt 0.6159 0.1708 0.0000
vt 0.6575 0.7576 0.0000
vt 0.6395 0.7489 0.0000
vt 0.6538 0.7382 0.0000
vt 0.6641 0.7492 0.0000
vt 0.7286 0.8083 0.0000
vt 0.7386 0.8011 0.0000
vt 0.6190 0.6430 0.0000
vt 0.5966 0.6043 0.0000
vt 0.6588 0.5765 0.0000
vt 0.6659 0.5945 0.0000
vt 0.5212 0.5745 0.0000
vt 0.5265 0.5504 0.0000
vt 0.5869 0.9639 0.0000
vt 0.5562 0.9614 0.0000
vt 0.6343 0.9713 0.0000
vt 0.5877 0.9749 0.0000
vt 0.5563 0.9711 0.0000
vt 0.6248 0.1666 0.0000
vt 0.6339 0.9784 0.0000
vt 0.7010 0.9664 0.0000
vt 0.7019 0.9829 0.0000
vt 0.5020 0.5831 0.0000
vt 0.4985 0.5268 0.0000
vt 0.4793 0.5642 0.0000
vt 0.4817 0.5314 0.0000
vt 0.4933 0.6023 0.0000
vt 0.4791 0.5893 0.0000
vt 0.4790 0.7261 0.0000
vt 0.4986 0.7229 0.0000
vt 0.5011 0.7993 0.0000
vt 0.4835 0.7970 0.0000
vt 0.5398 0.7531 0.0000
vt 0.5510 0.8017 0.0000
vt 0.3016 0.6119 0.0000
vt 0.4381 0.5925 0.0000
vt 0.3181 0.7159 0.0000
vt 0.2077 0.7302 0.0000
vt 0.1957 0.6234 0.0000
vt 0.0925 0.7016 0.0000
vt 0.0815 0.6049 0.0000
vt 0.0144 0.6408 0.0000
vt 0.0142 0.7710 0.0000
vt 0.0309 0.5759 0.0000
vt 0.0748 0.4974 0.0000
vt 0.0899 0.4911 0.0000
vt 0.3605 0.5163 0.0000
vt 0.4027 0.5390 0.0000
vt 0.4171 0.5592 0.0000
vt 0.0450 0.8074 0.0000
vt 0.7282 0.9382 0.0000
vt 0.4001 0.4116 0.0000
vt 0.3816 0.4205 0.0000
vt 0.2507 0.2317 0.0000
vt 0.2880 0.4481 0.0000
vt 0.2221 0.4638 0.0000
vt 0.1947 0.4647 0.0000
vt 0.1536 0.4511 0.0000
vt 0.1287 0.4371 0.0000
vt 0.0670 0.3631 0.0000
vt 0.0364 0.3219 0.0000
vt 0.0271 0.2818 0.0000
vt 0.0274 0.1877 0.0000
vt 0.0279 0.1703 0.0000
vt 0.0443 0.1408 0.0000
vt 0.1194 0.0535 0.0000
vt 0.1297 0.0474 0.0000
vt 0.2012 0.0334 0.0000
vt 0.2536 0.0258 0.0000
vt 0.4026 0.0417 0.0000
vt 0.4196 0.0623 0.0000
vt 0.4494 0.0895 0.0000
vt 0.4830 0.1361 0.0000
vt 0.4861 0.1660 0.0000
vt 0.4887 0.1890 0.0000
vt 0.4660 0.3011 0.0000
vt 0.4384 0.3536 0.0000
# 175 texture coords

o Box004
g Box004
usemtl wire_227153153
s 1
f 1/1/1 2/2/2 3/3/3 4/4/4 
f 5/5/5 6/6/6 7/7/7 
s 2
f 5/8/5 7/9/7 8/10/8 
s 1
f 9/11/9 10/12/10 11/13/11 12/14/12 
f 13/15/13 9/16/9 12/17/12 
f 14/18/14 7/7/7 6/6/6 15/19/15 
f 3/3/3 14/18/14 15/19/15 4/4/4 
s 2
f 5/8/5 8/10/8 12/14/12 11/13/11 
s 4
f 12/17/12 8/20/8 7/21/7 13/15/13 
f 13/15/13 7/21/7 14/22/14 16/23/16 
f 16/23/16 14/22/14 3/24/3 17/25/17 
s 8
f 17/25/17 3/24/3 2/26/2 18/27/18 
s 2
f 19/28/19 20/29/20 2/2/2 1/1/1 
s 8
f 21/30/21 18/31/18 2/32/2 20/33/20 
s 1
f 22/34/22 23/35/23 24/36/24 25/37/25 
s 2
f 21/30/21 26/38/26 27/39/27 18/31/18 
f 17/25/17 18/27/18 27/40/27 28/41/28 
s 1
f 17/25/17 28/41/28 29/42/29 16/23/16 
f 29/42/29 9/16/9 13/15/13 16/23/16 
f 24/36/24 26/38/26 21/30/21 25/37/25 
f 30/43/30 31/44/31 23/35/23 22/34/22 
s 2
f 32/45/32 33/46/33 20/29/20 19/28/19 
s 4
f 33/47/33 25/37/25 21/30/21 20/33/20 
f 34/48/34 22/34/22 25/37/25 33/47/33 
s 2
f 34/49/34 33/46/33 32/45/32 35/50/35 
f 34/49/34 35/50/35 36/51/36 37/52/37 
s 4
f 38/53/38 30/43/30 37/54/37 
s 1
f 38/53/38 39/55/39 31/44/31 30/43/30 
s 8
f 39/55/39 40/56/40 31/44/31 
s 4
f 30/43/30 22/34/22 34/48/34 37/54/37 
s 16
f 39/57/39 38/58/38 37/59/37 36/60/36 
f 41/61/41 42/62/42 39/57/39 36/60/36 
s 8
f 43/63/43 40/64/40 39/57/39 42/62/42 
s 16
f 44/65/44 41/61/41 45/66/45 
f 46/67/46 42/62/42 41/61/41 44/65/44 
s 8
f 43/63/43 42/62/42 46/67/46 
s 16
f 47/68/47 48/69/48 49/70/49 50/71/50 
s 2
f 51/72/51 52/73/52 50/71/50 49/70/49 
s 16
f 52/73/52 51/72/51 53/74/53 54/75/54 
f 54/75/54 53/74/53 55/76/55 56/77/56 
s 32
f 56/78/56 57/79/57 58/80/58 54/81/54 
s 1
f 58/80/58 57/79/57 46/67/46 44/65/44 
s 16
f 48/69/48 59/82/59 49/70/49 
s 8
f 47/83/47 50/84/50 44/65/44 45/66/45 
f 58/80/58 44/65/44 50/84/50 52/85/52 
f 54/81/54 58/80/58 52/85/52 
s 32
f 60/86/60 61/87/61 59/82/59 48/69/48 
s 1
f 53/74/53 51/72/51 49/70/49 59/82/59 
f 53/74/53 59/82/59 61/87/61 62/88/62 
s 32
f 60/86/60 63/89/63 64/90/64 61/87/61 
f 60/91/60 65/92/65 63/93/63 
s 1
f 66/94/66 62/88/62 61/87/61 64/90/64 
s 4
f 67/95/67 55/76/55 53/74/53 62/88/62 
f 67/95/67 62/88/62 66/94/66 68/96/68 
s 32
f 69/97/69 70/98/70 64/90/64 63/89/63 
s 1
f 71/99/71 66/94/66 64/90/64 70/98/70 
s 16
f 72/100/72 70/101/70 69/102/69 73/103/73 
f 74/104/74 72/100/72 73/103/73 75/105/75 
f 76/106/76 77/107/77 74/108/74 75/109/75 
s 8
f 78/110/78 79/111/79 74/108/74 77/107/77 
s 2
f 80/112/80 71/113/71 70/101/70 72/100/72 
f 80/112/80 72/100/72 74/104/74 81/114/81 
s 8
f 80/112/80 82/115/82 83/116/83 71/113/71 
s 4
f 83/117/83 68/96/68 66/94/66 71/99/71 
s 8
f 84/118/84 82/115/82 80/112/80 81/114/81 
f 81/114/81 85/119/85 86/120/86 84/118/84 
s 1
f 78/110/78 87/121/87 85/122/85 79/111/79 
f 88/123/88 86/124/86 85/122/85 87/121/87 
f 89/125/89 90/126/90 88/123/88 87/121/87 
s 8
f 91/127/91 90/126/90 89/125/89 92/128/92 
f 91/127/91 92/128/92 93/129/93 94/130/94 
s 4
f 92/128/92 95/131/95 96/132/96 93/129/93 
f 95/131/95 92/128/92 77/107/77 76/106/76 
f 92/128/92 89/125/89 78/110/78 77/107/77 
s 1
f 78/110/78 89/125/89 87/121/87 
s 4
f 97/133/97 41/134/41 36/51/36 98/135/98 
f 98/135/98 32/45/32 19/28/19 1/1/1 
s 2
f 1/1/1 4/4/4 98/135/98 
f 97/133/97 98/135/98 99/136/99 100/137/100 
s 4
f 98/135/98 36/51/36 35/50/35 
f 98/135/98 35/50/35 32/45/32 
s 2
f 4/4/4 15/19/15 99/136/99 98/135/98 
f 99/136/99 15/19/15 6/6/6 101/138/101 
f 102/139/102 100/137/100 99/136/99 101/138/101 
f 76/140/76 101/138/101 6/6/6 95/141/95 
f 76/140/76 75/142/75 102/139/102 101/138/101 
f 102/139/102 75/142/75 73/143/73 69/144/69 
f 97/133/97 100/137/100 63/93/63 65/92/65 
f 100/137/100 102/139/102 69/144/69 63/93/63 
s 4
f 97/133/97 65/92/65 60/91/60 
f 97/133/97 60/91/60 48/145/48 
f 97/133/97 48/145/48 47/146/47 
f 97/133/97 47/146/47 45/147/45 
f 41/134/41 97/133/97 45/147/45 
s 8
f 93/129/93 11/13/11 10/12/10 94/130/94 
s 4
f 96/132/96 5/8/5 11/13/11 93/129/93 
s 1
f 5/5/5 96/148/96 6/6/6 
f 96/148/96 95/141/95 6/6/6 
s 2
f 74/104/74 79/149/79 85/119/85 81/114/81 
s off
f 10/150/10 9/151/9 103/152/103 
f 9/151/9 29/153/29 103/152/103 
f 29/153/29 28/154/28 103/152/103 
f 28/154/28 27/155/27 103/152/103 
f 27/155/27 26/156/26 103/152/103 
f 26/156/26 24/157/24 103/152/103 
f 24/157/24 23/158/23 103/152/103 
f 23/158/23 31/159/31 103/152/103 
f 31/159/31 40/160/40 103/152/103 
f 40/160/40 43/161/43 103/152/103 
f 43/161/43 46/162/46 103/152/103 
f 46/162/46 57/163/57 103/152/103 
f 57/163/57 56/164/56 103/152/103 
f 56/164/56 55/165/55 103/152/103 
f 55/165/55 67/166/67 103/152/103 
f 67/166/67 68/167/68 103/152/103 
f 68/167/68 83/168/83 103/152/103 
f 83/168/83 82/169/82 103/152/103 
f 82/169/82 84/170/84 103/152/103 
f 84/170/84 86/171/86 103/152/103 
f 86/171/86 88/172/88 103/152/103 
f 88/172/88 90/173/90 103/152/103 
f 90/173/90 91/174/91 103/152/103 
f 91/174/91 94/175/94 103/152/103 
f 94/175/94 10/150/10 103/152/103 
# 78 polygons - 46 triangles

