# 3ds Max Wavefront OBJ Exporter v0.99 - (c)2007 guruware
# File Created: 12.08.2023 23:24:44

mtllib BRock01_L.mtl

#
# object Box002
#

v  -0.7321 -0.0545 1.4726
v  -0.7471 -0.1406 1.5304
v  -0.6674 -0.1597 1.5710
v  -0.5264 -0.0442 1.5415
v  -0.8637 -0.5687 1.5510
v  -0.9118 -0.5725 1.5166
v  -0.9800 -0.6819 1.4068
v  -0.7198 -0.6873 1.5343
v  0.9917 -0.1301 1.4865
v  0.9463 -0.0225 1.4638
v  0.3167 0.4185 1.2720
v  0.2951 0.4395 1.2489
v  0.3639 0.5167 1.1557
v  0.5163 0.3574 1.2886
v  1.0618 -0.0988 1.3922
v  0.9951 -0.0145 1.3801
v  0.5841 0.3579 1.1492
v  0.3199 0.5978 1.0123
v  1.0837 -0.5762 1.4691
v  1.2354 -0.3630 1.1300
v  1.1970 -0.6763 1.3018
v  1.2739 -0.4927 1.0927
v  1.2952 -0.4892 0.9173
v  0.9968 -0.6885 1.4766
v  0.6406 -0.6777 -1.5139
v  0.6484 -0.5858 -1.4352
v  0.9990 -0.5438 -0.1469
v  0.9705 -0.6526 -0.1185
v  0.5888 -0.6786 -1.5590
v  0.5273 -0.5732 -1.5376
v  0.4079 -0.4228 -1.4824
v  0.4472 -0.4114 -1.4473
v  0.0828 -0.1027 -1.3669
v  0.1030 -0.0927 -1.3366
v  -0.0377 0.0519 -1.2587
v  -0.1045 -0.0094 -1.3374
v  -0.1489 0.2070 -1.0825
v  -0.5071 -0.0512 -1.3478
v  -1.0175 -0.5000 -1.5564
v  -1.0972 -0.4664 -1.4946
v  -0.9805 -0.5479 -1.5735
v  -1.1845 -0.5555 -1.3765
v  -0.9542 -0.6670 -1.5642
v  -1.1412 -0.6816 -1.3258
v  -1.1224 -0.6839 0.2579
v  -1.2949 -0.3868 0.2710
v  -1.2467 -0.4479 -0.5506
v  -1.1318 -0.6834 -0.5402
v  -1.1276 -0.6756 0.4916
v  -1.2899 -0.3938 0.5024
v  -1.1160 -0.6733 1.1142
v  -1.2425 -0.2834 0.4905
v  -0.9007 0.0444 0.9815
v  -0.7130 0.1943 0.9810
v  -0.1794 0.5958 0.6426
v  0.0819 0.7001 0.6437
v  -0.0172 0.6851 0.3826
v  0.0984 0.5043 0.9976
v  -1.2119 -0.4065 -0.5485
v  -0.6386 0.0165 -0.4018
v  -0.0863 0.4786 -0.2413
v  0.1411 0.3248 -0.1232
v  -0.0335 0.4536 -0.2194
v  0.3436 0.1326 -0.0937
v  0.7212 -0.2129 -0.0922
v  0.7545 -0.2551 -0.0862
v  0.9419 -0.4744 -0.1301
# 67 vertices

vn -0.5586 0.6308 0.5385
vn -0.6013 0.3899 0.6975
vn -0.1727 0.2253 0.9589
vn -0.1128 0.5168 0.8487
vn -0.3781 -0.1816 0.9078
vn -0.7417 -0.0224 0.6703
vn -0.6352 -0.6550 0.4092
vn -0.0538 -0.7474 0.6621
vn 0.4315 0.1867 0.8826
vn 0.4148 0.5133 0.7513
vn 0.0696 0.6588 0.7491
vn -0.1577 0.7758 0.6109
vn 0.2151 0.8492 0.4823
vn 0.3414 0.7018 0.6252
vn 0.8485 0.4186 0.3238
vn 0.7085 0.6943 0.1262
vn 0.6699 0.7424 0.0076
vn 0.2556 0.9451 0.2034
vn 0.5536 -0.0630 0.8304
vn 0.8916 0.4354 0.1245
vn 0.7093 -0.6338 0.3084
vn 0.9743 0.0086 0.2250
vn 0.9824 0.0079 -0.1867
vn 0.1802 -0.6951 0.6960
vn 0.7003 -0.4770 -0.5311
vn 0.7893 0.4769 -0.3868
vn 0.9434 0.1960 -0.2677
vn 0.6017 -0.7899 -0.1185
vn 0.3738 -0.4922 -0.7862
vn 0.3218 0.4504 -0.8328
vn 0.2372 0.5155 -0.8234
vn 0.5540 0.6691 -0.4954
vn 0.2334 0.6039 -0.7621
vn 0.5396 0.7361 -0.4086
vn 0.3637 0.7699 -0.5244
vn 0.0236 0.5957 -0.8029
vn 0.0736 0.9120 -0.4036
vn -0.2932 0.7441 -0.6003
vn -0.4064 0.2123 -0.8887
vn -0.7006 0.3987 -0.5918
vn -0.3008 0.0186 -0.9535
vn -0.9282 -0.0011 -0.3720
vn -0.2880 -0.6546 -0.6990
vn -0.5914 -0.7866 -0.1775
vn -0.4934 -0.8698 0.0098
vn -0.9973 0.0565 -0.0466
vn -0.9882 0.1303 -0.0803
vn -0.5236 -0.8520 0.0049
vn -0.5147 -0.8572 0.0181
vn -0.9896 -0.0095 0.1437
vn -0.7642 -0.5836 0.2746
vn -0.8003 0.5938 0.0831
vn -0.7445 0.6414 0.1854
vn -0.5261 0.8235 0.2120
vn -0.4946 0.8542 0.1604
vn 0.1824 0.9822 0.0452
vn 0.0077 0.9692 -0.2463
vn -0.3453 0.8074 0.4784
vn -0.6726 0.7307 -0.1169
vn -0.5925 0.7936 -0.1383
vn -0.0578 0.9513 -0.3029
vn 0.6735 0.6876 -0.2713
vn 0.5892 0.7527 -0.2938
vn 0.6692 0.6976 -0.2560
vn 0.7213 0.6527 -0.2320
vn 0.7489 0.6214 -0.2301
vn 0.7225 0.6547 -0.2223
# 67 vertex normals

vt 0.5263 0.4230 0.0000
vt 0.5181 0.4359 0.0000
vt 0.5050 0.4280 0.0000
vt 0.5039 0.4020 0.0000
vt 0.4788 0.4833 0.0000
vt 0.4820 0.4906 0.0000
vt 0.4678 0.5136 0.0000
vt 0.4533 0.4781 0.0000
vt 0.3574 0.2454 0.0000
vt 0.3737 0.2393 0.0000
vt 0.4859 0.2615 0.0000
vt 0.4912 0.2611 0.0000
vt 0.5024 0.2398 0.0000
vt 0.4617 0.2461 0.0000
vt 0.4236 0.1385 0.0000
vt 0.4148 0.1203 0.0000
vt 0.4309 0.1170 0.0000
vt 0.4357 0.1314 0.0000
vt 0.4878 0.1986 0.0000
vt 0.5255 0.2356 0.0000
vt 0.4715 0.2135 0.0000
vt 0.4016 0.0452 0.0000
vt 0.4607 0.0661 0.0000
vt 0.4276 0.0188 0.0000
vt 0.4639 0.0448 0.0000
vt 0.4879 0.0424 0.0000
vt 0.2976 0.3011 0.0000
vt 0.2610 0.2890 0.0000
vt 0.2995 0.2793 0.0000
vt 0.8498 -0.0000 0.0000
vt 0.8388 0.0132 0.0000
vt 0.6438 0.0186 0.0000
vt 0.6398 0.0020 0.0000
vt 1.0000 0.1002 0.0000
vt 0.9837 0.1057 0.0000
vt 0.9831 0.0832 0.0000
vt 0.9991 0.0903 0.0000
vt 0.9583 0.1170 0.0000
vt 0.9555 0.1098 0.0000
vt 0.9018 0.1559 0.0000
vt 0.8985 0.1516 0.0000
vt 0.8694 0.1701 0.0000
vt 0.8832 0.1808 0.0000
vt 0.8277 0.1849 0.0000
vt 0.8832 0.2364 0.0000
vt 0.9430 0.3132 0.0000
vt 0.9329 0.3225 0.0000
vt 0.9506 0.3111 0.0000
vt 0.9308 0.3437 0.0000
vt 0.9669 0.3145 0.0000
vt 0.9411 0.3597 0.0000
vt 0.7404 0.4867 0.0000
vt 0.7206 0.4424 0.0000
vt 0.8298 0.3962 0.0000
vt 0.8485 0.4280 0.0000
vt 0.7034 0.4983 0.0000
vt 0.6903 0.4561 0.0000
vt 0.6071 0.5085 0.0000
vt 0.6864 0.4402 0.0000
vt 0.5389 0.4997 0.0000
vt 0.5595 0.5137 0.0000
vt 0.5987 0.4046 0.0000
vt 0.5866 0.3757 0.0000
vt 0.5989 0.2810 0.0000
vt 0.5849 0.2474 0.0000
vt 0.6195 0.2473 0.0000
vt 0.5365 0.2685 0.0000
vt 0.8260 0.3893 0.0000
vt 0.7682 0.3015 0.0000
vt 0.7047 0.2209 0.0000
vt 0.6805 0.1857 0.0000
vt 0.6997 0.2135 0.0000
vt 0.8514 0.1207 0.0000
vt 0.8471 0.1524 0.0000
vt 0.6677 0.1488 0.0000
vt 0.8499 0.0502 0.0000
vt 0.6500 0.0801 0.0000
vt 0.6476 0.0729 0.0000
vt 0.6444 0.0316 0.0000
vt 0.4504 0.5578 0.0000
vt 0.1787 0.7853 0.0000
vt 0.1355 0.7852 0.0000
vt 0.0000 0.6113 0.0000
vt 0.0005 0.6016 0.0000
vt 0.2662 0.7158 0.0000
vt 0.1264 0.4417 0.0000
vt 0.3558 0.6457 0.0000
vt 0.3831 0.6258 0.0000
# 88 texture coords

o Box002
g Box002
usemtl wire_086086086
s off
f 1/1/1 2/2/2 3/3/3 4/4/4 
f 5/5/5 3/3/3 2/2/2 6/6/6 
f 6/6/6 7/7/7 8/8/8 5/5/5 
f 9/9/9 10/10/10 4/4/4 3/3/3 
f 4/4/4 11/11/11 12/12/12 1/1/1 
f 13/13/13 12/12/12 11/11/11 14/14/14 
f 10/15/10 9/16/9 15/17/15 16/18/16 
f 17/19/17 18/20/18 13/13/13 14/21/14 
f 14/21/14 10/15/10 16/18/16 17/19/17 
f 9/16/9 19/22/19 20/23/20 15/17/15 
f 20/23/20 19/22/19 21/24/21 22/25/22 
f 23/26/23 20/23/20 22/25/22 
f 23/26/23 22/25/22 21/24/21 
f 24/27/24 21/28/21 19/29/19 
f 25/30/25 26/31/26 27/32/27 28/33/28 
f 27/32/27 23/26/23 21/24/21 28/33/28 
f 29/34/29 30/35/30 26/36/26 25/37/25 
f 30/35/30 31/38/31 32/39/32 26/36/26 
f 31/38/31 33/40/33 34/41/34 32/39/32 
f 35/42/35 34/41/34 33/40/33 36/43/36 
f 37/44/37 35/42/35 36/43/36 38/45/38 
f 38/45/38 39/46/39 40/47/40 
f 40/47/40 39/46/39 41/48/41 42/49/42 
f 43/50/43 44/51/44 42/49/42 41/48/41 
s 1
f 43/50/43 41/48/41 30/35/30 29/34/29 
s off
f 45/52/45 46/53/46 47/54/47 48/55/48 
f 47/54/47 42/49/42 44/51/44 48/55/48 
f 49/56/49 50/57/50 46/53/46 45/52/45 
f 50/57/50 49/56/49 51/58/51 
f 50/57/50 52/59/52 46/53/46 
s 1
f 52/59/52 50/57/50 2/2/2 1/1/1 
s 2
f 50/57/50 51/58/51 6/60/6 2/2/2 
s off
f 7/61/7 6/60/6 51/58/51 
f 1/1/1 53/62/53 52/59/52 
f 1/1/1 54/63/54 53/62/53 
f 55/64/55 56/65/56 57/66/57 
f 54/63/54 58/67/58 55/64/55 
s 1
f 58/67/58 12/12/12 13/13/13 18/20/18 
s off
f 54/63/54 1/1/1 12/12/12 58/67/58 
f 18/20/18 56/65/56 55/64/55 58/67/58 
f 59/68/59 40/47/40 42/49/42 47/54/47 
f 59/68/59 47/54/47 46/53/46 52/59/52 
f 60/69/60 38/45/38 40/47/40 59/68/59 
f 60/69/60 59/68/59 52/59/52 53/62/53 
s 2
f 41/48/41 39/46/39 31/38/31 30/35/30 
s 1
f 39/46/39 38/45/38 33/40/33 31/38/31 
s off
f 60/69/60 61/70/61 37/44/37 38/45/38 
s 1
f 60/69/60 53/62/53 54/63/54 55/64/55 
s 2
f 61/70/61 60/69/60 55/64/55 57/66/57 
f 56/65/56 18/20/18 62/71/62 63/72/63 
s 4
f 56/65/56 63/72/63 61/70/61 57/66/57 
f 34/73/34 35/74/35 62/71/62 64/75/64 
s 2
f 32/76/32 34/73/34 64/75/64 65/77/65 
s 1
f 26/31/26 32/76/32 66/78/66 67/79/67 
s 8
f 15/17/15 66/78/66 65/77/65 16/18/16 
s 16
f 23/26/23 27/32/27 67/79/67 20/23/20 
s 2
f 62/71/62 35/74/35 37/44/37 63/72/63 
s 4
f 62/71/62 18/20/18 17/19/17 64/75/64 
s 2
f 64/75/64 17/19/17 16/18/16 65/77/65 
s 1
f 66/78/66 15/17/15 20/23/20 67/79/67 
s 8
f 66/78/66 32/76/32 65/77/65 
s 16
f 27/32/27 26/31/26 67/79/67 
s 4
f 63/72/63 37/44/37 61/70/61 
s 32
f 10/10/10 14/14/14 11/11/11 4/4/4 
s 1
f 19/29/19 9/9/9 3/3/3 5/5/5 
s 2
f 24/27/24 19/29/19 5/5/5 8/8/8 
s 64
f 33/40/33 38/45/38 36/43/36 
s 128
f 7/7/7 51/80/51 8/8/8 
f 44/81/44 43/82/43 29/83/29 25/84/25 
f 48/85/48 44/81/44 25/84/25 28/86/28 
f 45/87/45 48/85/48 28/86/28 21/28/21 
f 49/88/49 45/87/45 21/28/21 24/27/24 
f 51/80/51 49/88/49 24/27/24 8/8/8 
# 57 polygons - 16 triangles

