# 3ds Max Wavefront OBJ Exporter v0.99 - (c)2007 guruware
# File Created: 13.09.2023 05:36:41

#
# object Box002
#

v  -1.2337 1.0882 0.1539
v  0.1309 1.5149 -0.0500
v  1.4955 1.9415 -0.2540
v  -1.7543 2.3799 0.5181
v  -0.4128 2.8759 0.3176
v  0.9287 3.3719 0.1171
v  -2.3332 3.6630 0.6763
v  -1.0107 4.2087 0.4787
v  0.3117 4.7545 0.2810
v  -3.0794 4.7433 0.4297
v  -1.8477 5.4745 0.2457
v  -0.6159 6.2058 0.0616
v  -4.1530 5.9116 0.1465
v  -2.9868 6.7454 -0.0278
v  -1.8206 7.5792 -0.2021
v  1.4227 -0.1469 0.4512
v  1.5189 -0.1469 -0.0679
v  1.4318 -0.1469 -0.5886
v  1.1718 -0.1469 -1.0480
v  0.7704 -0.1469 -1.3909
v  0.2759 -0.1469 -1.5758
v  -0.2520 -0.1469 -1.5804
v  -0.7496 -0.1469 -1.4042
v  -1.1570 -0.1469 -1.0684
v  -1.4249 -0.1469 -0.6135
v  -1.5211 -0.1469 -0.0944
v  -1.4340 -0.1469 0.4263
v  -1.1740 -0.1469 0.8857
v  -0.7726 -0.1469 1.2286
v  -0.2781 -0.1469 1.4135
v  0.2498 -0.1469 1.4181
v  0.7474 -0.1469 1.2419
v  1.1548 -0.1469 0.9061
v  1.4227 0.9029 0.4512
v  1.5189 0.9029 -0.0679
v  1.4318 0.9029 -0.5886
v  1.1718 0.9029 -1.0480
v  0.7704 0.9029 -1.3909
v  0.2759 0.9029 -1.5758
v  -0.2520 0.9029 -1.5804
v  -0.7496 0.9029 -1.4042
v  -1.1570 0.9029 -1.0684
v  -1.4249 0.9029 -0.6135
v  -1.5211 0.9029 -0.0944
v  -1.4340 0.9029 0.4263
v  -1.1740 0.9029 0.8857
v  -0.7726 0.9029 1.2286
v  -0.2781 0.9029 1.4135
v  0.2498 0.9029 1.4181
v  0.7474 0.9029 1.2419
v  1.1548 0.9029 0.9061
v  1.1729 1.4982 0.3578
v  1.2522 1.4982 -0.0702
v  1.1803 1.4982 -0.4995
v  0.9660 1.4982 -0.8784
v  0.6350 1.4982 -1.1611
v  0.2273 1.4982 -1.3135
v  -0.2079 1.4982 -1.3173
v  -0.6183 1.4982 -1.1720
v  -0.9541 1.4982 -0.8951
v  -1.1750 1.4982 -0.5201
v  -1.2544 1.4982 -0.0921
v  -1.1825 1.4982 0.3372
v  -0.9682 1.4982 0.7161
v  -0.6372 1.4982 0.9987
v  -0.2295 1.4982 1.1512
v  0.2058 1.4982 1.1550
v  0.6161 1.4982 1.0097
v  0.9519 1.4982 0.7328
v  0.7108 1.9527 0.1850
v  0.7589 1.9527 -0.0745
v  0.7154 1.9527 -0.3349
v  0.5854 1.9527 -0.5646
v  0.3847 1.9527 -0.7360
v  0.1374 1.9527 -0.8285
v  -0.1265 1.9527 -0.8308
v  -0.3754 1.9527 -0.7427
v  -0.5790 1.9527 -0.5748
v  -0.7130 1.9527 -0.3473
v  -0.7611 1.9527 -0.0878
v  -0.7175 1.9527 0.1726
v  -0.5876 1.9527 0.4023
v  -0.3868 1.9527 0.5737
v  -0.1396 1.9527 0.6662
v  0.1244 1.9527 0.6685
v  0.3732 1.9527 0.5804
v  0.5769 1.9527 0.4125
v  -0.0011 2.0813 -0.0812
v  -1.0805 1.6645 0.2121
v  -0.2707 1.2736 0.0250
v  0.5392 0.8827 -0.1622
v  -0.6943 2.5294 0.0998
v  0.1156 2.1385 -0.0873
v  0.9254 1.7476 -0.2744
v  -0.2410 3.4124 -0.1545
v  0.5147 2.9220 -0.3336
v  1.2704 2.4316 -0.5126
v  0.1890 4.1877 -0.6039
v  0.9421 3.6931 -0.7825
v  1.6952 3.1985 -0.9612
v  0.7942 4.9588 -1.2400
v  1.4929 4.3874 -1.4105
v  2.1916 3.8161 -1.5811
# 103 vertices

vn 0.2004 -0.1804 0.9630
vn 0.2003 -0.1804 0.9630
vn 0.1814 -0.1134 0.9768
vn 0.1814 -0.1132 0.9769
vn 0.2003 -0.1804 0.9630
vn 0.2003 -0.1804 0.9630
vn 0.1815 -0.1136 0.9768
vn 0.1814 -0.1134 0.9768
vn 0.1814 -0.1132 0.9769
vn 0.1814 -0.1134 0.9768
vn 0.1198 0.0897 0.9887
vn 0.1198 0.0895 0.9888
vn 0.1814 -0.1134 0.9768
vn 0.1815 -0.1136 0.9768
vn 0.1196 0.0899 0.9887
vn 0.1198 0.0897 0.9887
vn 0.1198 0.0895 0.9888
vn 0.1198 0.0897 0.9887
vn 0.0633 0.2581 0.9640
vn 0.0628 0.2593 0.9637
vn 0.1198 0.0897 0.9887
vn 0.1196 0.0899 0.9887
vn 0.0638 0.2567 0.9644
vn 0.0633 0.2581 0.9640
vn 0.0628 0.2593 0.9637
vn 0.0633 0.2581 0.9640
vn 0.0515 0.2917 0.9551
vn 0.0515 0.2917 0.9551
vn 0.0633 0.2581 0.9640
vn 0.0638 0.2567 0.9644
vn 0.0516 0.2917 0.9551
vn 0.0515 0.2917 0.9551
vn 0.9890 0.0000 -0.1478
vn 0.8788 0.0000 -0.4772
vn 0.8602 0.2045 -0.4671
vn 0.9681 0.2045 -0.1447
vn 0.8788 0.0000 -0.4772
vn 0.6626 0.0000 -0.7490
vn 0.6486 0.2045 -0.7331
vn 0.8602 0.2045 -0.4671
vn 0.6626 0.0000 -0.7490
vn 0.3665 0.0000 -0.9304
vn 0.3587 0.2045 -0.9108
vn 0.6486 0.2045 -0.7331
vn 0.3665 0.0000 -0.9304
vn 0.0262 0.0000 -0.9997
vn 0.0257 0.2045 -0.9785
vn 0.3587 0.2045 -0.9108
vn 0.0262 0.0000 -0.9997
vn -0.3173 0.0000 -0.9483
vn -0.3106 0.2045 -0.9283
vn 0.0257 0.2045 -0.9785
vn -0.3173 0.0000 -0.9483
vn -0.6225 0.0000 -0.7826
vn -0.6094 0.2045 -0.7661
vn -0.3106 0.2045 -0.9283
vn -0.6225 0.0000 -0.7826
vn -0.8527 0.0000 -0.5225
vn -0.8346 0.2045 -0.5114
vn -0.6094 0.2045 -0.7661
vn -0.8527 0.0000 -0.5225
vn -0.9799 0.0000 -0.1994
vn -0.9592 0.2045 -0.1951
vn -0.8346 0.2045 -0.5114
vn -0.9799 0.0000 -0.1994
vn -0.9890 0.0000 0.1478
vn -0.9681 0.2045 0.1447
vn -0.9592 0.2045 -0.1951
vn -0.9890 0.0000 0.1478
vn -0.8788 0.0000 0.4772
vn -0.8602 0.2045 0.4671
vn -0.9681 0.2045 0.1447
vn -0.8788 0.0000 0.4772
vn -0.6627 0.0000 0.7489
vn -0.6487 0.2045 0.7331
vn -0.8602 0.2045 0.4671
vn -0.6627 0.0000 0.7489
vn -0.3665 0.0000 0.9304
vn -0.3588 0.2045 0.9107
vn -0.6487 0.2045 0.7331
vn -0.3665 0.0000 0.9304
vn -0.0262 0.0000 0.9997
vn -0.0256 0.2045 0.9785
vn -0.3588 0.2045 0.9107
vn -0.0262 0.0000 0.9997
vn 0.3173 0.0000 0.9483
vn 0.3106 0.2045 0.9283
vn -0.0256 0.2045 0.9785
vn 0.3173 0.0000 0.9483
vn 0.6225 0.0000 0.7826
vn 0.6093 0.2045 0.7661
vn 0.3106 0.2045 0.9283
vn 0.6225 0.0000 0.7826
vn 0.8526 -0.0000 0.5225
vn 0.8346 0.2045 0.5114
vn 0.6093 0.2045 0.7661
vn 0.8526 -0.0000 0.5225
vn 0.9799 0.0000 0.1994
vn 0.9592 0.2045 0.1951
vn 0.8346 0.2045 0.5114
vn 0.9799 0.0000 0.1994
vn 0.9890 0.0000 -0.1478
vn 0.9681 0.2045 -0.1447
vn 0.9592 0.2045 0.1951
vn 0.9681 0.2045 -0.1447
vn 0.8602 0.2045 -0.4671
vn 0.7198 0.5738 -0.3908
vn 0.8100 0.5738 -0.1211
vn 0.8602 0.2045 -0.4671
vn 0.6486 0.2045 -0.7331
vn 0.5427 0.5738 -0.6134
vn 0.7198 0.5738 -0.3908
vn 0.6486 0.2045 -0.7331
vn 0.3587 0.2045 -0.9108
vn 0.3002 0.5738 -0.7620
vn 0.5427 0.5738 -0.6134
vn 0.3587 0.2045 -0.9108
vn 0.0257 0.2045 -0.9785
vn 0.0215 0.5738 -0.8187
vn 0.3002 0.5738 -0.7620
vn 0.0257 0.2045 -0.9785
vn -0.3106 0.2045 -0.9283
vn -0.2599 0.5738 -0.7767
vn 0.0215 0.5738 -0.8187
vn -0.3106 0.2045 -0.9283
vn -0.6094 0.2045 -0.7661
vn -0.5099 0.5738 -0.6409
vn -0.2599 0.5738 -0.7767
vn -0.6094 0.2045 -0.7661
vn -0.8346 0.2045 -0.5114
vn -0.6983 0.5738 -0.4280
vn -0.5099 0.5738 -0.6409
vn -0.8346 0.2045 -0.5114
vn -0.9592 0.2045 -0.1951
vn -0.8026 0.5738 -0.1633
vn -0.6983 0.5738 -0.4280
vn -0.9592 0.2045 -0.1951
vn -0.9681 0.2045 0.1447
vn -0.8100 0.5738 0.1211
vn -0.8026 0.5738 -0.1633
vn -0.9681 0.2045 0.1447
vn -0.8602 0.2045 0.4671
vn -0.7197 0.5738 0.3908
vn -0.8100 0.5738 0.1211
vn -0.8602 0.2045 0.4671
vn -0.6487 0.2045 0.7331
vn -0.5427 0.5738 0.6134
vn -0.7197 0.5738 0.3908
vn -0.6487 0.2045 0.7331
vn -0.3588 0.2045 0.9107
vn -0.3002 0.5738 0.7620
vn -0.5427 0.5738 0.6134
vn -0.3588 0.2045 0.9107
vn -0.0256 0.2045 0.9785
vn -0.0214 0.5738 0.8187
vn -0.3002 0.5738 0.7620
vn -0.0256 0.2045 0.9785
vn 0.3106 0.2045 0.9283
vn 0.2599 0.5738 0.7767
vn -0.0214 0.5738 0.8187
vn 0.3106 0.2045 0.9283
vn 0.6093 0.2045 0.7661
vn 0.5098 0.5738 0.6410
vn 0.2599 0.5738 0.7767
vn 0.6093 0.2045 0.7661
vn 0.8346 0.2045 0.5114
vn 0.6983 0.5738 0.4279
vn 0.5098 0.5738 0.6410
vn 0.8346 0.2045 0.5114
vn 0.9592 0.2045 0.1951
vn 0.8026 0.5738 0.1633
vn 0.6983 0.5738 0.4279
vn 0.9592 0.2045 0.1951
vn 0.9681 0.2045 -0.1447
vn 0.8100 0.5738 -0.1211
vn 0.8026 0.5738 0.1633
vn 0.8100 0.5738 -0.1211
vn 0.7198 0.5738 -0.3908
vn 0.4088 0.8852 -0.2220
vn 0.4601 0.8852 -0.0688
vn 0.7198 0.5738 -0.3908
vn 0.5427 0.5738 -0.6134
vn 0.3082 0.8852 -0.3484
vn 0.4088 0.8852 -0.2220
vn 0.5427 0.5738 -0.6134
vn 0.3002 0.5738 -0.7620
vn 0.1705 0.8852 -0.4328
vn 0.3082 0.8852 -0.3484
vn 0.3002 0.5738 -0.7620
vn 0.0215 0.5738 -0.8187
vn 0.0122 0.8852 -0.4650
vn 0.1705 0.8852 -0.4328
vn 0.0215 0.5738 -0.8187
vn -0.2599 0.5738 -0.7767
vn -0.1476 0.8852 -0.4411
vn 0.0122 0.8852 -0.4650
vn -0.2599 0.5738 -0.7767
vn -0.5099 0.5738 -0.6409
vn -0.2896 0.8852 -0.3641
vn -0.1476 0.8852 -0.4411
vn -0.5099 0.5738 -0.6409
vn -0.6983 0.5738 -0.4280
vn -0.3966 0.8852 -0.2431
vn -0.2896 0.8852 -0.3641
vn -0.6983 0.5738 -0.4280
vn -0.8026 0.5738 -0.1633
vn -0.4558 0.8852 -0.0927
vn -0.3966 0.8852 -0.2431
vn -0.8026 0.5738 -0.1633
vn -0.8100 0.5738 0.1211
vn -0.4601 0.8852 0.0688
vn -0.4558 0.8852 -0.0927
vn -0.8100 0.5738 0.1211
vn -0.7197 0.5738 0.3908
vn -0.4088 0.8852 0.2220
vn -0.4601 0.8852 0.0688
vn -0.7197 0.5738 0.3908
vn -0.5427 0.5738 0.6134
vn -0.3082 0.8852 0.3484
vn -0.4088 0.8852 0.2220
vn -0.5427 0.5738 0.6134
vn -0.3002 0.5738 0.7620
vn -0.1705 0.8852 0.4328
vn -0.3082 0.8852 0.3484
vn -0.3002 0.5738 0.7620
vn -0.0214 0.5738 0.8187
vn -0.0122 0.8852 0.4650
vn -0.1705 0.8852 0.4328
vn -0.0214 0.5738 0.8187
vn 0.2599 0.5738 0.7767
vn 0.1477 0.8852 0.4411
vn -0.0122 0.8852 0.4650
vn 0.2599 0.5738 0.7767
vn 0.5098 0.5738 0.6410
vn 0.2896 0.8852 0.3641
vn 0.1477 0.8852 0.4411
vn 0.5098 0.5738 0.6410
vn 0.6983 0.5738 0.4279
vn 0.3966 0.8852 0.2431
vn 0.2896 0.8852 0.3641
vn 0.6983 0.5738 0.4279
vn 0.8026 0.5738 0.1633
vn 0.4558 0.8852 0.0927
vn 0.3966 0.8852 0.2431
vn 0.8026 0.5738 0.1633
vn 0.8100 0.5738 -0.1211
vn 0.4601 0.8852 -0.0688
vn 0.4558 0.8852 0.0927
vn 0.0000 1.0000 -0.0000
vn 0.4601 0.8852 -0.0688
vn 0.4088 0.8852 -0.2220
vn 0.0000 1.0000 -0.0000
vn 0.4088 0.8852 -0.2220
vn 0.3082 0.8852 -0.3484
vn 0.0000 1.0000 -0.0000
vn 0.3082 0.8852 -0.3484
vn 0.1705 0.8852 -0.4328
vn 0.0000 1.0000 -0.0000
vn 0.1705 0.8852 -0.4328
vn 0.0122 0.8852 -0.4650
vn 0.0000 1.0000 -0.0000
vn 0.0122 0.8852 -0.4650
vn -0.1476 0.8852 -0.4411
vn 0.0000 1.0000 -0.0000
vn -0.1476 0.8852 -0.4411
vn -0.2896 0.8852 -0.3641
vn 0.0000 1.0000 -0.0000
vn -0.2896 0.8852 -0.3641
vn -0.3966 0.8852 -0.2431
vn 0.0000 1.0000 -0.0000
vn -0.3966 0.8852 -0.2431
vn -0.4558 0.8852 -0.0927
vn 0.0000 1.0000 -0.0000
vn -0.4558 0.8852 -0.0927
vn -0.4601 0.8852 0.0688
vn 0.0000 1.0000 -0.0000
vn -0.4601 0.8852 0.0688
vn -0.4088 0.8852 0.2220
vn 0.0000 1.0000 -0.0000
vn -0.4088 0.8852 0.2220
vn -0.3082 0.8852 0.3484
vn 0.0000 1.0000 -0.0000
vn -0.3082 0.8852 0.3484
vn -0.1705 0.8852 0.4328
vn 0.0000 1.0000 -0.0000
vn -0.1705 0.8852 0.4328
vn -0.0122 0.8852 0.4650
vn 0.0000 1.0000 -0.0000
vn -0.0122 0.8852 0.4650
vn 0.1477 0.8852 0.4411
vn 0.0000 1.0000 -0.0000
vn 0.1477 0.8852 0.4411
vn 0.2896 0.8852 0.3641
vn 0.0000 1.0000 -0.0000
vn 0.2896 0.8852 0.3641
vn 0.3966 0.8852 0.2431
vn 0.0000 1.0000 -0.0000
vn 0.3966 0.8852 0.2431
vn 0.4558 0.8852 0.0927
vn 0.0000 1.0000 -0.0000
vn 0.4558 0.8852 0.0927
vn 0.4601 0.8852 -0.0688
vn 0.2348 0.0213 0.9718
vn 0.2349 0.0213 0.9718
vn 0.2633 0.0854 0.9609
vn 0.2634 0.0856 0.9609
vn 0.2349 0.0213 0.9718
vn 0.2348 0.0213 0.9718
vn 0.2633 0.0853 0.9609
vn 0.2633 0.0854 0.9609
vn 0.2634 0.0856 0.9609
vn 0.2633 0.0854 0.9609
vn 0.3401 0.2740 0.8996
vn 0.3400 0.2738 0.8997
vn 0.2633 0.0854 0.9609
vn 0.2633 0.0853 0.9609
vn 0.3402 0.2742 0.8995
vn 0.3401 0.2740 0.8996
vn 0.3400 0.2738 0.8997
vn 0.3401 0.2740 0.8996
vn 0.3930 0.4236 0.8162
vn 0.3934 0.4246 0.8154
vn 0.3401 0.2740 0.8996
vn 0.3402 0.2742 0.8995
vn 0.3927 0.4224 0.8170
vn 0.3930 0.4236 0.8162
vn 0.3934 0.4246 0.8154
vn 0.3930 0.4236 0.8162
vn 0.4023 0.4527 0.7958
vn 0.4023 0.4527 0.7958
vn 0.3930 0.4236 0.8162
vn 0.3927 0.4224 0.8170
vn 0.4024 0.4527 0.7957
vn 0.4023 0.4527 0.7958
# 334 vertex normals

vt 0.4593 0.2981 0.0000
vt 0.6070 0.2981 0.0000
vt 0.4593 0.4551 0.0000
vt 0.6070 0.4551 0.0000
vt 0.4593 0.6121 0.0000
vt 0.6070 0.6121 0.0000
vt 0.3115 0.2981 0.0000
vt 0.3115 0.4551 0.0000
vt 0.3115 0.6121 0.0000
vt 0.1637 0.2981 0.0000
vt 0.1637 0.4551 0.0000
vt 0.1637 0.6121 0.0000
vt 0.0160 0.2981 0.0000
vt 0.0160 0.4551 0.0000
vt 0.0160 0.6121 0.0000
vt 0.4389 0.6557 0.0000
vt 0.4940 0.6557 0.0000
vt 0.4940 0.7685 0.0000
vt 0.4389 0.7685 0.0000
vt 0.0671 0.6557 0.0000
vt 0.0671 0.7685 0.0000
vt 0.1247 0.6557 0.0000
vt 0.1247 0.7685 0.0000
vt 0.1796 0.6557 0.0000
vt 0.1796 0.7685 0.0000
vt 0.2317 0.6557 0.0000
vt 0.2317 0.7685 0.0000
vt 0.2823 0.6557 0.0000
vt 0.2823 0.7685 0.0000
vt 0.3329 0.6557 0.0000
vt 0.3329 0.7685 0.0000
vt 0.3850 0.6557 0.0000
vt 0.3850 0.7685 0.0000
vt 0.4686 0.8584 0.0000
vt 0.4108 0.8584 0.0000
vt 0.1024 0.8584 0.0000
vt 0.1522 0.8584 0.0000
vt 0.1970 0.8584 0.0000
vt 0.2380 0.8584 0.0000
vt 0.2774 0.8584 0.0000
vt 0.3176 0.8584 0.0000
vt 0.3613 0.8584 0.0000
vt 0.4120 0.9223 0.0000
vt 0.3753 0.9223 0.0000
vt 0.1382 0.9223 0.0000
vt 0.1751 0.9223 0.0000
vt 0.2094 0.9223 0.0000
vt 0.2424 0.9223 0.0000
vt 0.2747 0.9223 0.0000
vt 0.3072 0.9223 0.0000
vt 0.3405 0.9223 0.0000
vt 0.2522 0.9793 0.0000
vt 0.0080 0.6557 0.0000
vt 0.0080 0.7685 0.0000
vt 0.0473 0.8584 0.0000
vt 0.0977 0.9223 0.0000
vt 0.9374 0.6557 0.0000
vt 0.9924 0.6557 0.0000
vt 0.9924 0.7685 0.0000
vt 0.9374 0.7685 0.0000
vt 0.5065 0.6557 0.0000
vt 0.5655 0.6557 0.0000
vt 0.5655 0.7685 0.0000
vt 0.5065 0.7685 0.0000
vt 0.6231 0.6557 0.0000
vt 0.6231 0.7685 0.0000
vt 0.6780 0.6557 0.0000
vt 0.6780 0.7685 0.0000
vt 0.7301 0.6557 0.0000
vt 0.7301 0.7685 0.0000
vt 0.7807 0.6557 0.0000
vt 0.7807 0.7685 0.0000
vt 0.8313 0.6557 0.0000
vt 0.8313 0.7685 0.0000
vt 0.8834 0.6557 0.0000
vt 0.8834 0.7685 0.0000
vt 0.9670 0.8584 0.0000
vt 0.9092 0.8584 0.0000
vt 0.6008 0.8584 0.0000
vt 0.5458 0.8584 0.0000
vt 0.6506 0.8584 0.0000
vt 0.6954 0.8584 0.0000
vt 0.7365 0.8584 0.0000
vt 0.7758 0.8584 0.0000
vt 0.8160 0.8584 0.0000
vt 0.8597 0.8584 0.0000
vt 0.9104 0.9223 0.0000
vt 0.8737 0.9223 0.0000
vt 0.6366 0.9223 0.0000
vt 0.5962 0.9223 0.0000
vt 0.6736 0.9223 0.0000
vt 0.7079 0.9223 0.0000
vt 0.7408 0.9223 0.0000
vt 0.7731 0.9223 0.0000
vt 0.8056 0.9223 0.0000
vt 0.8390 0.9223 0.0000
vt 0.7506 0.9793 0.0000
vt 0.4593 0.2981 0.0000
vt 0.6070 0.2981 0.0000
vt 0.4593 0.4551 0.0000
vt 0.6070 0.4551 0.0000
vt 0.4593 0.6121 0.0000
vt 0.6070 0.6121 0.0000
vt 0.3115 0.2981 0.0000
vt 0.3115 0.4551 0.0000
vt 0.3115 0.6121 0.0000
vt 0.1637 0.2981 0.0000
vt 0.1637 0.4551 0.0000
vt 0.1637 0.6121 0.0000
vt 0.0160 0.2981 0.0000
vt 0.0160 0.4551 0.0000
vt 0.0160 0.6121 0.0000
# 112 texture coords

o Box002
g Box002
s off
f 1/2/1 2/4/2 5/3/3 4/1/4 
f 2/4/5 3/6/6 6/5/7 5/3/8 
f 4/1/9 5/3/10 8/8/11 7/7/12 
f 5/3/13 6/5/14 9/9/15 8/8/16 
f 7/7/17 8/8/18 11/11/19 10/10/20 
f 8/8/21 9/9/22 12/12/23 11/11/24 
f 10/10/25 11/11/26 14/14/27 13/13/28 
f 11/11/29 12/12/30 15/15/31 14/14/32 
f 16/16/33 17/17/34 35/18/35 34/19/36 
f 17/57/37 18/58/38 36/59/39 35/60/40 
f 18/61/41 19/62/42 37/63/43 36/64/44 
f 19/62/45 20/65/46 38/66/47 37/63/48 
f 20/65/49 21/67/50 39/68/51 38/66/52 
f 21/67/53 22/69/54 40/70/55 39/68/56 
f 22/69/57 23/71/58 41/72/59 40/70/60 
f 23/71/61 24/73/62 42/74/63 41/72/64 
f 24/73/65 25/75/66 43/76/67 42/74/68 
f 25/75/69 26/57/70 44/60/71 43/76/72 
f 26/53/73 27/20/74 45/21/75 44/54/76 
f 27/20/77 28/22/78 46/23/79 45/21/80 
f 28/22/81 29/24/82 47/25/83 46/23/84 
f 29/24/85 30/26/86 48/27/87 47/25/88 
f 30/26/89 31/28/90 49/29/91 48/27/92 
f 31/28/93 32/30/94 50/31/95 49/29/96 
f 32/30/97 33/32/98 51/33/99 50/31/100 
f 33/32/101 16/16/102 34/19/103 51/33/104 
f 34/19/105 35/18/106 53/34/107 52/35/108 
f 35/60/109 36/59/110 54/77/111 53/78/112 
f 36/64/113 37/63/114 55/79/115 54/80/116 
f 37/63/117 38/66/118 56/81/119 55/79/120 
f 38/66/121 39/68/122 57/82/123 56/81/124 
f 39/68/125 40/70/126 58/83/127 57/82/128 
f 40/70/129 41/72/130 59/84/131 58/83/132 
f 41/72/133 42/74/134 60/85/135 59/84/136 
f 42/74/137 43/76/138 61/86/139 60/85/140 
f 43/76/141 44/60/142 62/78/143 61/86/144 
f 44/54/145 45/21/146 63/36/147 62/55/148 
f 45/21/149 46/23/150 64/37/151 63/36/152 
f 46/23/153 47/25/154 65/38/155 64/37/156 
f 47/25/157 48/27/158 66/39/159 65/38/160 
f 48/27/161 49/29/162 67/40/163 66/39/164 
f 49/29/165 50/31/166 68/41/167 67/40/168 
f 50/31/169 51/33/170 69/42/171 68/41/172 
f 51/33/173 34/19/174 52/35/175 69/42/176 
f 52/35/177 53/34/178 71/43/179 70/44/180 
f 53/78/181 54/77/182 72/87/183 71/88/184 
f 54/80/185 55/79/186 73/89/187 72/90/188 
f 55/79/189 56/81/190 74/91/191 73/89/192 
f 56/81/193 57/82/194 75/92/195 74/91/196 
f 57/82/197 58/83/198 76/93/199 75/92/200 
f 58/83/201 59/84/202 77/94/203 76/93/204 
f 59/84/205 60/85/206 78/95/207 77/94/208 
f 60/85/209 61/86/210 79/96/211 78/95/212 
f 61/86/213 62/78/214 80/88/215 79/96/216 
f 62/55/217 63/36/218 81/45/219 80/56/220 
f 63/36/221 64/37/222 82/46/223 81/45/224 
f 64/37/225 65/38/226 83/47/227 82/46/228 
f 65/38/229 66/39/230 84/48/231 83/47/232 
f 66/39/233 67/40/234 85/49/235 84/48/236 
f 67/40/237 68/41/238 86/50/239 85/49/240 
f 68/41/241 69/42/242 87/51/243 86/50/244 
f 69/42/245 52/35/246 70/44/247 87/51/248 
f 88/52/249 70/44/250 71/43/251 
f 88/97/252 71/88/253 72/87/254 
f 88/97/255 72/90/256 73/89/257 
f 88/97/258 73/89/259 74/91/260 
f 88/97/261 74/91/262 75/92/263 
f 88/97/264 75/92/265 76/93/266 
f 88/97/267 76/93/268 77/94/269 
f 88/97/270 77/94/271 78/95/272 
f 88/97/273 78/95/274 79/96/275 
f 88/97/276 79/96/277 80/88/278 
f 88/52/279 80/56/280 81/45/281 
f 88/52/282 81/45/283 82/46/284 
f 88/52/285 82/46/286 83/47/287 
f 88/52/288 83/47/289 84/48/290 
f 88/52/291 84/48/292 85/49/293 
f 88/52/294 85/49/295 86/50/296 
f 88/52/297 86/50/298 87/51/299 
f 88/52/300 87/51/301 70/44/302 
f 89/99/303 90/101/304 93/100/305 92/98/306 
f 90/101/307 91/103/308 94/102/309 93/100/310 
f 92/98/311 93/100/312 96/105/313 95/104/314 
f 93/100/315 94/102/316 97/106/317 96/105/318 
f 95/104/319 96/105/320 99/108/321 98/107/322 
f 96/105/323 97/106/324 100/109/325 99/108/326 
f 98/107/327 99/108/328 102/111/329 101/110/330 
f 99/108/331 100/109/332 103/112/333 102/111/334 
# 70 polygons - 18 triangles

